<svg width="60" height="60" viewBox="0 0 60 60" fill="none" xmlns="http://www.w3.org/2000/svg">
<g filter="url(#filter0_i_1_2626)">
<path fill-rule="evenodd" clip-rule="evenodd" d="M56.325 53.6751L45.075 42.4251C44.345 41.6926 43.155 41.6926 42.425 42.4251C41.6925 43.1551 41.6925 44.3451 42.425 45.0751L53.675 56.3251C54.405 57.0576 55.595 57.0576 56.325 56.3251C57.0575 55.5951 57.0575 54.4051 56.325 53.6751Z" fill="#C6D6FF"/>
<path fill-rule="evenodd" clip-rule="evenodd" d="M27.5 3.125C14.0475 3.125 3.125 14.0475 3.125 27.5C3.125 40.9525 14.0475 51.875 27.5 51.875C40.9525 51.875 51.875 40.9525 51.875 27.5C51.875 14.0475 40.9525 3.125 27.5 3.125ZM12.5 29.375H18.75C19.5 29.375 20.1775 28.9275 20.4725 28.2375L22.145 24.335L25.6975 36.765C25.9225 37.555 26.6375 38.1075 27.46 38.125C28.28 38.1425 29.02 37.6225 29.28 36.8425L32.99 25.71L34.6425 28.465C34.98 29.03 35.5925 29.375 36.25 29.375H42.5C43.535 29.375 44.375 28.535 44.375 27.5C44.375 26.465 43.535 25.625 42.5 25.625H37.3125L34.1075 20.285C33.73 19.6575 33.0225 19.3075 32.295 19.385C31.5675 19.465 30.9525 19.9625 30.72 20.6575L27.6375 29.9075L24.3025 18.235C24.085 17.4725 23.41 16.93 22.6175 16.88C21.8275 16.8275 21.09 17.2825 20.7775 18.0125L17.5125 25.625H12.5C11.465 25.625 10.625 26.465 10.625 27.5C10.625 28.535 11.465 29.375 12.5 29.375Z" fill="#C6D6FF"/>
</g>
<defs>
<filter id="filter0_i_1_2626" x="0" y="0" width="61" height="61" filterUnits="userSpaceOnUse" color-interpolation-filters="sRGB">
<feFlood flood-opacity="0" result="BackgroundImageFix"/>
<feBlend mode="normal" in="SourceGraphic" in2="BackgroundImageFix" result="shape"/>
<feColorMatrix in="SourceAlpha" type="matrix" values="0 0 0 0 0 0 0 0 0 0 0 0 0 0 0 0 0 0 127 0" result="hardAlpha"/>
<feOffset dx="1" dy="1"/>
<feGaussianBlur stdDeviation="0.5"/>
<feComposite in2="hardAlpha" operator="arithmetic" k2="-1" k3="1"/>
<feColorMatrix type="matrix" values="0 0 0 0 0.5175 0 0 0 0 0.561711 0 0 0 0 0.675 0 0 0 1 0"/>
<feBlend mode="normal" in2="shape" result="effect1_innerShadow_1_2626"/>
</filter>
</defs>
</svg>
