<svg width="15" height="15" viewBox="0 0 15 15" fill="none" xmlns="http://www.w3.org/2000/svg">
<path d="M7.5 6.05359C8.90768 6.05359 10.0488 4.91244 10.0488 3.50476C10.0488 2.09708 8.90768 0.955933 7.5 0.955933C6.09232 0.955933 4.95117 2.09708 4.95117 3.50476C4.95117 4.91244 6.09232 6.05359 7.5 6.05359Z" fill="#A0C0D9"/>
<path d="M12.6562 6.05359C13.5462 6.05359 14.2676 5.33217 14.2676 4.44226C14.2676 3.55235 13.5462 2.83093 12.6562 2.83093C11.7663 2.83093 11.0449 3.55235 11.0449 4.44226C11.0449 5.33217 11.7663 6.05359 12.6562 6.05359Z" fill="#A0C0D9"/>
<path d="M2.34375 6.05359C3.23366 6.05359 3.95508 5.33217 3.95508 4.44226C3.95508 3.55235 3.23366 2.83093 2.34375 2.83093C1.45384 2.83093 0.732422 3.55235 0.732422 4.44226C0.732422 5.33217 1.45384 6.05359 2.34375 6.05359Z" fill="#A0C0D9"/>
<path d="M3.93135 7.50052C3.29707 6.98086 2.72265 7.04964 1.98926 7.04964C0.892383 7.04964 0 7.93675 0 9.02689V12.2264C0 12.6998 0.386426 13.0848 0.861621 13.0848C2.91316 13.0848 2.66602 13.1219 2.66602 12.9963C2.66602 10.7292 2.39748 9.06653 3.93135 7.50052V7.50052Z" fill="#A0C0D9"/>
<path d="M8.19755 7.06143C6.91658 6.95458 5.80315 7.06266 4.84277 7.85537C3.23563 9.14268 3.54492 10.876 3.54492 12.9964C3.54492 13.5574 4.00136 14.0224 4.57089 14.0224C10.7549 14.0224 11.0011 14.2218 11.3678 13.4098C11.488 13.1351 11.4551 13.2224 11.4551 10.5952C11.4551 8.50851 9.64825 7.06143 8.19755 7.06143V7.06143Z" fill="#A0C0D9"/>
<path d="M13.0107 7.04969C12.2733 7.04969 11.7021 6.98161 11.0686 7.50057C12.5911 9.05495 12.334 10.6041 12.334 12.9964C12.334 13.1228 12.1288 13.0849 14.1076 13.0849C14.5998 13.0849 15 12.6861 15 12.196V9.02694C15 7.9368 14.1076 7.04969 13.0107 7.04969Z" fill="#A0C0D9"/>
</svg>
