<svg width="35" height="35" viewBox="0 0 35 35" fill="none" xmlns="http://www.w3.org/2000/svg">
<rect width="35" height="35" rx="4" fill="#F2F5FC"/>
<g clip-path="url(#clip0_3_2992)">
<path d="M22.9243 20.4401C22.0182 19.6651 21.0986 19.1956 20.2035 19.9695L19.6691 20.4372C19.2781 20.7767 18.5511 22.363 15.7401 19.1295C12.9298 15.9 14.6022 15.3972 14.9938 15.0606L15.5312 14.5923C16.4215 13.8167 16.0855 12.8403 15.4433 11.8352L15.0558 11.2264C14.4108 10.2237 13.7083 9.56516 12.8156 10.3396L12.3333 10.7611C11.9388 11.0485 10.8359 11.9827 10.5684 13.7575C10.2465 15.8871 11.2621 18.3257 13.5889 21.0015C15.9128 23.6783 18.1881 25.0229 20.3434 24.9995C22.1347 24.9802 23.2164 24.019 23.5548 23.6695L24.0389 23.2475C24.9292 22.4736 24.376 21.6857 23.4693 20.909L22.9243 20.4401Z" fill="#718FDB"/>
</g>
<defs>
<clipPath id="clip0_3_2992">
<rect width="15" height="15" fill="white" transform="translate(10 10)"/>
</clipPath>
</defs>
</svg>
