<svg width="15" height="13" viewBox="0 0 15 13" fill="none" xmlns="http://www.w3.org/2000/svg">
<path d="M12.1574 6.90125V9.9198C12.1574 10.4044 11.763 10.7988 11.2784 10.7988H3.71883C3.2342 10.7988 2.83981 10.4044 2.83981 9.9198V6.90125C3.25327 7.08868 6.27745 8.45966 6.75467 8.67599C7.22846 8.89076 7.76906 8.89076 8.24256 8.67599C8.65611 8.48849 11.6413 7.13518 12.1574 6.90125Z" fill="#A0C0D9"/>
<path d="M14.9956 4.0034C14.9777 3.66178 14.7783 3.364 14.4647 3.21767L7.8889 0.148959C7.64087 0.0332214 7.35639 0.0331628 7.10842 0.148959L0.532533 3.21767C-0.182373 3.55126 -0.175722 4.56905 0.541763 4.89432C5.97656 7.35812 6.81319 7.73742 7.11771 7.87548C7.36011 7.98524 7.637 7.9853 7.87953 7.87548C11.5132 6.22814 10.4889 6.69247 14.1206 5.04615V12.4982C14.1206 12.741 14.3173 12.9378 14.5601 12.9378C14.8028 12.9378 14.9996 12.741 14.9996 12.4982C14.9996 3.43421 15.0018 4.05189 14.9956 4.0034Z" fill="#A0C0D9"/>
</svg>
