<svg width="15" height="15" viewBox="0 0 15 15" fill="none" xmlns="http://www.w3.org/2000/svg">
<g clip-path="url(#clip0_3_2965)">
<path d="M9.375 4.0625C9.03 4.0625 8.75 3.7825 8.75 3.4375V2.5H6.25V3.4375C6.25 3.7825 5.97 4.0625 5.625 4.0625C5.28 4.0625 5 3.7825 5 3.4375V2.5C5 1.81062 5.56062 1.25 6.25 1.25H8.75C9.43938 1.25 10 1.81062 10 2.5V3.4375C10 3.7825 9.72 4.0625 9.375 4.0625Z" fill="#A0C0D9"/>
<path d="M7.94375 9.61245C7.83125 9.6562 7.66875 9.68745 7.5 9.68745C7.33125 9.68745 7.16875 9.6562 7.01875 9.59995L0 7.26245V12.0312C0 12.9812 0.76875 13.75 1.71875 13.75H13.2812C14.2312 13.75 15 12.9812 15 12.0312V7.26245L7.94375 9.61245Z" fill="#A0C0D9"/>
<path d="M15 4.84375V6.275L7.65 8.725C7.6 8.74375 7.55 8.75 7.5 8.75C7.45 8.75 7.4 8.74375 7.35 8.725L0 6.275V4.84375C0 3.89375 0.76875 3.125 1.71875 3.125H13.2812C14.2312 3.125 15 3.89375 15 4.84375V4.84375Z" fill="#A0C0D9"/>
</g>
<defs>
<clipPath id="clip0_3_2965">
<rect width="15" height="15" fill="white"/>
</clipPath>
</defs>
</svg>
