<svg width="60" height="80" viewBox="0 0 60 80" fill="none" xmlns="http://www.w3.org/2000/svg">
<g clip-path="url(#clip0_1_2239)">
<g filter="url(#filter0_i_1_2239)">
<path d="M16.2267 26.0905C15.3983 24.6556 13.5527 24.152 12.2095 25.122C9.6338 26.9821 7.37057 29.2507 5.51232 31.8439C3.07025 35.2518 1.38387 39.1418 0.565941 43.2538C-0.251987 47.3658 -0.182617 51.605 0.769413 55.6881C1.72144 59.7711 3.53419 63.6038 6.08646 66.93C8.63873 70.2562 11.8717 72.9992 15.5692 74.9755C19.2667 76.9519 23.3436 78.1161 27.5271 78.3903C31.7107 78.6645 35.9046 78.0424 39.8285 76.5656C42.8143 75.4418 45.5913 73.8428 48.0546 71.8364C49.3393 70.79 49.3305 68.8769 48.1589 67.7053L43.9138 63.4602C42.7422 62.2886 40.8544 62.314 39.4996 63.2678C38.2956 64.1156 36.9859 64.8098 35.6002 65.3314C33.2755 66.2063 30.7908 66.5749 28.3122 66.4124C25.8336 66.25 23.4183 65.5602 21.2277 64.3893C19.037 63.2184 17.1217 61.5933 15.6095 59.6227C14.0974 57.6521 13.0235 55.3814 12.4594 52.9623C11.8954 50.5433 11.8543 48.0317 12.3389 45.5956C12.8235 43.1594 13.8226 40.8547 15.2694 38.8357C16.1318 37.6322 17.1414 36.5468 18.2718 35.6032C19.5438 34.5415 20.057 32.7246 19.2285 31.2897L16.2267 26.0905Z" fill="#DAE9F5"/>
<path d="M16.2267 26.0905C15.3983 24.6556 13.5527 24.152 12.2095 25.122C9.6338 26.9821 7.37057 29.2507 5.51232 31.8439C3.07025 35.2518 1.38387 39.1418 0.565941 43.2538C-0.251987 47.3658 -0.182617 51.605 0.769413 55.6881C1.72144 59.7711 3.53419 63.6038 6.08646 66.93C8.63873 70.2562 11.8717 72.9992 15.5692 74.9755C19.2667 76.9519 23.3436 78.1161 27.5271 78.3903C31.7107 78.6645 35.9046 78.0424 39.8285 76.5656C42.8143 75.4418 45.5913 73.8428 48.0546 71.8364C49.3393 70.79 49.3305 68.8769 48.1589 67.7053L43.9138 63.4602C42.7422 62.2886 40.8544 62.314 39.4996 63.2678C38.2956 64.1156 36.9859 64.8098 35.6002 65.3314C33.2755 66.2063 30.7908 66.5749 28.3122 66.4124C25.8336 66.25 23.4183 65.5602 21.2277 64.3893C19.037 63.2184 17.1217 61.5933 15.6095 59.6227C14.0974 57.6521 13.0235 55.3814 12.4594 52.9623C11.8954 50.5433 11.8543 48.0317 12.3389 45.5956C12.8235 43.1594 13.8226 40.8547 15.2694 38.8357C16.1318 37.6322 17.1414 36.5468 18.2718 35.6032C19.5438 34.5415 20.057 32.7246 19.2285 31.2897L16.2267 26.0905Z" stroke="#DAE9F5"/>
</g>
<g clip-path="url(#clip1_1_2239)">
<path d="M18.2855 37.9172C18.2855 37.9172 18.2855 57.2605 22.444 68.4708C26.6025 79.6811 26.8213 80.1207 27.0402 81H29.2289C29.2289 81 30.1044 76.8236 29.6666 73.5264C29.2289 70.2293 28.1346 66.4925 29.4478 63.4152C30.761 60.3378 34.4818 51.7652 36.0138 46.27C37.5459 40.7747 39.7346 32.422 39.9535 31.5427C40.1723 30.6635 34.8101 39.346 31.9648 41.9837C29.1195 44.6214 27.5874 46.5997 24.0855 45.9403C20.5836 45.2808 18.2855 37.9172 18.2855 37.9172Z" fill="#718FDB"/>
<path d="M30.5421 39.6756C30.5421 41.2539 28.3928 43.6322 26.8213 43.6322C25.2498 43.6322 24.8515 42.1331 24.8515 40.5549C24.8515 38.9766 26.1253 36.8181 27.6968 36.8181C29.4477 36.8181 30.5421 38.0974 30.5421 39.6756Z" fill="#718FDB"/>
<path d="M29.8352 33.6068C19.371 35.8049 10.2683 34.6377 9.50444 30.9822C8.88941 28.0258 13.8949 24.3681 21.3496 21.9063L21.4612 21.8689L21.354 21.9129C17.8871 23.2845 15.7225 24.9902 15.9917 26.408C16.4032 28.5709 22.3039 29.2655 29.1764 27.9466C36.0488 26.6278 41.2842 23.8164 40.8749 21.6535C40.5729 20.0489 37.2482 19.2553 32.7527 19.4883H32.6936H32.7549C40.6495 18.697 46.7822 20.0313 47.4016 23.0053C48.1632 26.652 40.2993 31.4021 29.8352 33.6068Z" fill="#718FDB"/>
<path d="M23.5383 5.82494C23.5383 5.82494 23.1005 7.1438 21.3496 9.12209C19.5986 11.1004 17.8477 13.0787 18.942 15.4966C20.0364 17.9145 22.4439 20.3324 22.4439 20.3324C22.4439 20.3324 21.6779 16.7055 22.7722 13.848C23.8666 10.9905 24.7421 8.79238 24.0855 7.0339C23.4288 5.27542 23.5383 5.82494 23.5383 5.82494Z" fill="#718FDB"/>
<path d="M27.6968 18.7938C27.6968 18.7938 29.01 22.0909 29.4478 22.3107C29.4478 22.3107 29.8855 19.8928 32.0742 17.2551C34.2629 14.6174 35.795 11.9796 34.2629 6.70421C34.2629 6.70421 33.4968 9.23202 32.4025 10.1113C32.4025 10.1113 32.8402 2.41791 28.4629 0C28.4629 0 28.4629 3.73677 26.493 8.13297C24.5232 12.5292 21.4591 17.365 24.0855 21.3216C26.7119 25.2782 26.9308 25.498 26.9308 25.498C26.9308 25.498 26.493 20.882 27.3685 19.3433L27.6968 18.7938Z" fill="#718FDB"/>
<path d="M32.6936 19.4905H32.7527H32.6936ZM21.354 21.9084L21.4612 21.8644L21.3496 21.9018L21.354 21.9084Z" fill="#718FDB"/>
</g>
</g>
<defs>
<filter id="filter0_i_1_2239" x="0" y="24.6218" width="50.0282" height="53.8315" filterUnits="userSpaceOnUse" color-interpolation-filters="sRGB">
<feFlood flood-opacity="0" result="BackgroundImageFix"/>
<feBlend mode="normal" in="SourceGraphic" in2="BackgroundImageFix" result="shape"/>
<feColorMatrix in="SourceAlpha" type="matrix" values="0 0 0 0 0 0 0 0 0 0 0 0 0 0 0 0 0 0 127 0" result="hardAlpha"/>
<feOffset dx="1"/>
<feGaussianBlur stdDeviation="1"/>
<feComposite in2="hardAlpha" operator="arithmetic" k2="-1" k3="1"/>
<feColorMatrix type="matrix" values="0 0 0 0 0.645573 0 0 0 0 0.752199 0 0 0 0 0.8375 0 0 0 1 0"/>
<feBlend mode="normal" in2="shape" result="effect1_innerShadow_1_2239"/>
</filter>
<clipPath id="clip0_1_2239">
<rect width="60" height="80" fill="white"/>
</clipPath>
<clipPath id="clip1_1_2239">
<rect width="38" height="81" fill="white" transform="translate(9.4541)"/>
</clipPath>
</defs>
</svg>
