<svg width="60" height="60" viewBox="0 0 60 60" fill="none" xmlns="http://www.w3.org/2000/svg">
<g clip-path="url(#clip0_1_2259)">
<g filter="url(#filter0_i_1_2259)">
<path d="M29.4535 3C29.4535 1.34315 28.1069 -0.0158207 26.4586 0.15265C22.9775 0.508461 19.5793 1.48269 16.4265 3.03746C12.3747 5.03563 8.83673 7.93913 6.08647 11.5233C3.3362 15.1076 1.44732 19.2764 0.565941 23.7074C-0.315439 28.1384 -0.16569 32.7128 1.0036 37.0766C2.1729 41.4405 4.33039 45.4769 7.30918 48.8735C10.288 52.2702 14.0082 54.9361 18.1821 56.665C22.356 58.3939 26.8717 59.1394 31.3798 58.8439C34.8876 58.614 38.3176 57.7586 41.5103 56.3262C43.022 55.648 43.5087 53.7978 42.6802 52.3629L39.6784 47.1636C38.85 45.7288 37.02 45.2647 35.4645 45.8354C33.9036 46.4081 32.2641 46.7566 30.5948 46.866C27.9239 47.0411 25.2486 46.5994 22.7757 45.5751C20.3028 44.5508 18.0988 42.9714 16.334 40.959C14.5691 38.9466 13.2909 36.5553 12.5982 33.9699C11.9054 31.3845 11.8167 28.6744 12.3389 26.0492C12.8611 23.424 13.9801 20.9541 15.6095 18.8307C17.239 16.7072 19.335 14.987 21.7356 13.8031C23.2359 13.0632 24.8301 12.5453 26.4682 12.2608C28.1007 11.9774 29.4535 10.6604 29.4535 9.00358V3Z" fill="#DAE9F5"/>
<path d="M29.4535 3C29.4535 1.34315 28.1069 -0.0158207 26.4586 0.15265C22.9775 0.508461 19.5793 1.48269 16.4265 3.03746C12.3747 5.03563 8.83673 7.93913 6.08647 11.5233C3.3362 15.1076 1.44732 19.2764 0.565941 23.7074C-0.315439 28.1384 -0.16569 32.7128 1.0036 37.0766C2.1729 41.4405 4.33039 45.4769 7.30918 48.8735C10.288 52.2702 14.0082 54.9361 18.1821 56.665C22.356 58.3939 26.8717 59.1394 31.3798 58.8439C34.8876 58.614 38.3176 57.7586 41.5103 56.3262C43.022 55.648 43.5087 53.7978 42.6802 52.3629L39.6784 47.1636C38.85 45.7288 37.02 45.2647 35.4645 45.8354C33.9036 46.4081 32.2641 46.7566 30.5948 46.866C27.9239 47.0411 25.2486 46.5994 22.7757 45.5751C20.3028 44.5508 18.0988 42.9714 16.334 40.959C14.5691 38.9466 13.2909 36.5553 12.5982 33.9699C11.9054 31.3845 11.8167 28.6744 12.3389 26.0492C12.8611 23.424 13.9801 20.9541 15.6095 18.8307C17.239 16.7072 19.335 14.987 21.7356 13.8031C23.2359 13.0632 24.8301 12.5453 26.4682 12.2608C28.1007 11.9774 29.4535 10.6604 29.4535 9.00358V3Z" stroke="#DAE9F5"/>
</g>
<g clip-path="url(#clip1_1_2259)">
<path d="M39.0525 17.2446H22.2795C20.471 17.2446 19 18.7156 19 20.5241V35.2224C19 35.9185 19.7872 36.3109 20.3429 35.9139L25.0141 32.5812C25.4061 32.302 25.8671 32.1541 26.3486 32.1541H36.6226C38.4311 32.1541 39.9021 30.6832 39.9021 28.8746V18.0942C39.9021 17.6253 39.5215 17.2446 39.0525 17.2446ZM34.9256 27.5368H25.1093C24.6403 27.5368 24.2596 27.1567 24.2596 26.6872C24.2596 26.2182 24.6403 25.8376 25.1093 25.8376H34.9256C35.3946 25.8376 35.7753 26.2182 35.7753 26.6872C35.7753 27.1567 35.3946 27.5368 34.9256 27.5368ZM34.9256 23.572H25.1093C24.6403 23.572 24.2596 23.1919 24.2596 22.7223C24.2596 22.2534 24.6403 21.8727 25.1093 21.8727H34.9256C35.3946 21.8727 35.7753 22.2534 35.7753 22.7223C35.7753 23.1919 35.3946 23.572 34.9256 23.572Z" fill="#718FDB"/>
<path d="M48 27.1143V41.812C48 42.5034 47.2167 42.9033 46.657 42.5035L41.9859 39.1714C41.5939 38.8921 41.1329 38.7443 40.6514 38.7443H30.3774C28.5689 38.7443 27.0979 37.2728 27.0979 35.4642V33.8534H36.6226C39.368 33.8534 41.6013 31.62 41.6013 28.8747V23.8342H44.7205C46.529 23.8342 48 25.3058 48 27.1143Z" fill="#718FDB"/>
</g>
</g>
<defs>
<filter id="filter0_i_1_2259" x="0" y="0.138428" width="44.0812" height="58.7686" filterUnits="userSpaceOnUse" color-interpolation-filters="sRGB">
<feFlood flood-opacity="0" result="BackgroundImageFix"/>
<feBlend mode="normal" in="SourceGraphic" in2="BackgroundImageFix" result="shape"/>
<feColorMatrix in="SourceAlpha" type="matrix" values="0 0 0 0 0 0 0 0 0 0 0 0 0 0 0 0 0 0 127 0" result="hardAlpha"/>
<feOffset dx="1"/>
<feGaussianBlur stdDeviation="1"/>
<feComposite in2="hardAlpha" operator="arithmetic" k2="-1" k3="1"/>
<feColorMatrix type="matrix" values="0 0 0 0 0.645573 0 0 0 0 0.752199 0 0 0 0 0.8375 0 0 0 1 0"/>
<feBlend mode="normal" in2="shape" result="effect1_innerShadow_1_2259"/>
</filter>
<clipPath id="clip0_1_2259">
<rect width="60" height="60" fill="white"/>
</clipPath>
<clipPath id="clip1_1_2259">
<rect width="29" height="29" fill="white" transform="translate(19 15.4536)"/>
</clipPath>
</defs>
</svg>
