<svg width="60" height="60" viewBox="0 0 60 60" fill="none" xmlns="http://www.w3.org/2000/svg">
<g filter="url(#filter0_i_1_2250)">
<path d="M29.4535 3C29.4535 1.34315 28.1069 -0.0158207 26.4586 0.15265C22.9775 0.508461 19.5793 1.48269 16.4265 3.03746C12.3747 5.03563 8.83673 7.93913 6.08647 11.5233C3.3362 15.1076 1.44732 19.2764 0.565941 23.7074C-0.315439 28.1384 -0.16569 32.7128 1.0036 37.0766C2.1729 41.4405 4.33039 45.4769 7.30918 48.8735C10.288 52.2702 14.0082 54.9361 18.1821 56.665C22.356 58.3939 26.8717 59.1394 31.3798 58.8439C34.8876 58.614 38.3176 57.7586 41.5103 56.3262C43.022 55.648 43.5087 53.7978 42.6802 52.3629L39.6784 47.1636C38.85 45.7288 37.02 45.2647 35.4645 45.8354C33.9036 46.4081 32.2641 46.7566 30.5948 46.866C27.9239 47.0411 25.2486 46.5994 22.7757 45.5751C20.3028 44.5508 18.0988 42.9714 16.334 40.959C14.5691 38.9466 13.2909 36.5553 12.5982 33.9699C11.9054 31.3845 11.8167 28.6744 12.3389 26.0492C12.8611 23.424 13.9801 20.9541 15.6095 18.8307C17.239 16.7072 19.335 14.987 21.7356 13.8031C23.2359 13.0632 24.8301 12.5453 26.4682 12.2608C28.1007 11.9774 29.4535 10.6604 29.4535 9.00358V3Z" fill="#DAE9F5"/>
<path d="M29.4535 3C29.4535 1.34315 28.1069 -0.0158207 26.4586 0.15265C22.9775 0.508461 19.5793 1.48269 16.4265 3.03746C12.3747 5.03563 8.83673 7.93913 6.08647 11.5233C3.3362 15.1076 1.44732 19.2764 0.565941 23.7074C-0.315439 28.1384 -0.16569 32.7128 1.0036 37.0766C2.1729 41.4405 4.33039 45.4769 7.30918 48.8735C10.288 52.2702 14.0082 54.9361 18.1821 56.665C22.356 58.3939 26.8717 59.1394 31.3798 58.8439C34.8876 58.614 38.3176 57.7586 41.5103 56.3262C43.022 55.648 43.5087 53.7978 42.6802 52.3629L39.6784 47.1636C38.85 45.7288 37.02 45.2647 35.4645 45.8354C33.9036 46.4081 32.2641 46.7566 30.5948 46.866C27.9239 47.0411 25.2486 46.5994 22.7757 45.5751C20.3028 44.5508 18.0988 42.9714 16.334 40.959C14.5691 38.9466 13.2909 36.5553 12.5982 33.9699C11.9054 31.3845 11.8167 28.6744 12.3389 26.0492C12.8611 23.424 13.9801 20.9541 15.6095 18.8307C17.239 16.7072 19.335 14.987 21.7356 13.8031C23.2359 13.0632 24.8301 12.5453 26.4682 12.2608C28.1007 11.9774 29.4535 10.6604 29.4535 9.00358V3Z" stroke="#DAE9F5"/>
</g>
<g clip-path="url(#clip0_1_2250)">
<path d="M47.2962 22.4786L30.3509 16.4998C30.1239 16.4197 29.8762 16.4197 29.6491 16.4998L12.7038 22.4786C12.2825 22.6272 12.0006 23.0252 12 23.4719C11.9994 23.9187 12.2805 24.3173 12.7014 24.4669L29.6468 30.4911C29.761 30.5317 29.8805 30.5521 30 30.5521C30.1195 30.5521 30.239 30.5317 30.3532 30.4911L47.2986 24.4669C47.7195 24.3173 48.0005 23.9187 48 23.4719C47.9994 23.0252 47.7175 22.6272 47.2962 22.4786Z" fill="#718FDB"/>
<path d="M45.4669 36.5564V27.3567L43.3575 28.1066V36.5564C42.7221 36.9221 42.294 37.6073 42.294 38.393C42.294 39.1787 42.7221 39.8639 43.3575 40.2296V45.4128C43.3575 45.9953 43.8297 46.4675 44.4122 46.4675C44.9946 46.4675 45.4669 45.9953 45.4669 45.4128V40.2297C46.1022 39.8641 46.5303 39.1788 46.5303 38.3931C46.5303 37.6073 46.1023 36.9221 45.4669 36.5564Z" fill="#718FDB"/>
<path d="M30 32.6615C29.638 32.6615 29.2814 32.5999 28.9402 32.4786L19.414 29.092V33.7332C19.414 34.8687 20.5986 35.829 22.9348 36.5872C24.9711 37.2482 27.4803 37.6122 30 37.6122C32.5197 37.6122 35.0288 37.2482 37.0652 36.5872C39.4014 35.829 40.586 34.8687 40.586 33.7332V29.092L31.0599 32.4786C30.7186 32.5999 30.362 32.6615 30 32.6615Z" fill="#718FDB"/>
</g>
<defs>
<filter id="filter0_i_1_2250" x="0" y="0.138428" width="44.0812" height="58.7686" filterUnits="userSpaceOnUse" color-interpolation-filters="sRGB">
<feFlood flood-opacity="0" result="BackgroundImageFix"/>
<feBlend mode="normal" in="SourceGraphic" in2="BackgroundImageFix" result="shape"/>
<feColorMatrix in="SourceAlpha" type="matrix" values="0 0 0 0 0 0 0 0 0 0 0 0 0 0 0 0 0 0 127 0" result="hardAlpha"/>
<feOffset dx="1"/>
<feGaussianBlur stdDeviation="1"/>
<feComposite in2="hardAlpha" operator="arithmetic" k2="-1" k3="1"/>
<feColorMatrix type="matrix" values="0 0 0 0 0.645573 0 0 0 0 0.752199 0 0 0 0 0.8375 0 0 0 1 0"/>
<feBlend mode="normal" in2="shape" result="effect1_innerShadow_1_2250"/>
</filter>
<clipPath id="clip0_1_2250">
<rect width="36" height="36" fill="white" transform="translate(12 13.4536)"/>
</clipPath>
</defs>
</svg>
