<svg width="79" height="60" viewBox="0 0 79 60" fill="none" xmlns="http://www.w3.org/2000/svg">
<g clip-path="url(#clip0_1_2226)">
<path d="M35.937 0.575L38.017 5.489H38.043L39.707 0.575H41.449L38.563 8.089C38.303 8.765 37.926 9.259 37.432 9.571C36.938 9.87433 36.3227 10.026 35.586 10.026L35.495 8.765C35.8677 8.739 36.184 8.65667 36.444 8.518C36.7127 8.37933 36.9077 8.13667 37.029 7.79L37.263 7.114L34.065 0.575H35.937ZM49.5493 8.544V12.093H48.0413V10H42.4643V0.575H44.0893V8.622H46.8323V0.575H48.4573V8.544H49.5493ZM53.8006 0.575C54.702 0.575 55.3953 0.835 55.8806 1.355C56.366 1.875 56.6086 2.60733 56.6086 3.552C56.6086 4.47933 56.3746 5.20733 55.9066 5.736C55.4386 6.256 54.7713 6.516 53.9046 6.516H52.2016V10H50.5766V0.575H53.8006ZM52.2016 5.268H53.7486C54.1906 5.268 54.507 5.13367 54.6976 4.865C54.8883 4.58767 54.9836 4.15867 54.9836 3.578C54.9836 2.98 54.8883 2.55533 54.6976 2.304C54.507 2.044 54.1906 1.914 53.7486 1.914H52.2016V5.268ZM62.4766 0.575V1.719H62.7496C63.2783 1.719 63.7333 1.79267 64.1146 1.94C64.5046 2.07867 64.8253 2.278 65.0766 2.538C65.3279 2.798 65.5143 3.11 65.6356 3.474C65.7656 3.82933 65.8306 4.21933 65.8306 4.644V5.879C65.8306 6.321 65.7656 6.724 65.6356 7.088C65.5143 7.44333 65.3236 7.751 65.0636 8.011C64.8123 8.26233 64.4916 8.46167 64.1016 8.609C63.7203 8.74767 63.2696 8.817 62.7496 8.817H62.4766V10H60.8646V8.817H60.6046C60.0846 8.817 59.6296 8.74767 59.2396 8.609C58.8496 8.46167 58.5246 8.26233 58.2646 8.011C58.0133 7.751 57.8226 7.44333 57.6926 7.088C57.5713 6.724 57.5106 6.321 57.5106 5.879V4.644C57.5106 4.21067 57.5713 3.81633 57.6926 3.461C57.8226 3.097 58.0133 2.78933 58.2646 2.538C58.5246 2.278 58.8496 2.07867 59.2396 1.94C59.6296 1.79267 60.0846 1.719 60.6046 1.719H60.8646V0.575H62.4766ZM60.9296 7.556V3.019H60.5656C60.0196 3.019 59.6296 3.15767 59.3956 3.435C59.1703 3.71233 59.0576 4.10667 59.0576 4.618V5.905C59.0576 6.43367 59.1703 6.841 59.3956 7.127C59.6296 7.413 60.0196 7.556 60.5656 7.556H60.9296ZM62.4246 3.019V7.556H62.7886C63.3259 7.556 63.7073 7.41733 63.9326 7.14C64.1666 6.854 64.2836 6.438 64.2836 5.892V4.618C64.2836 4.10667 64.1709 3.71233 63.9456 3.435C63.7203 3.15767 63.3346 3.019 62.7886 3.019H62.4246ZM69.065 0.575V10H67.44V0.575H69.065ZM72.7299 0.575V4.488H75.7589V0.575H77.3839V10H75.7589V5.892H72.7299V10H71.1049V0.575H72.7299Z" fill="#718FDB"/>
<g filter="url(#filter0_i_1_2226)">
<path d="M29.4535 3.54639C29.4535 1.88953 28.1069 0.530566 26.4586 0.699036C22.9775 1.05485 19.5793 2.02908 16.4265 3.58384C12.3747 5.58202 8.83673 8.48552 6.08647 12.0697C3.3362 15.6539 1.44732 19.8228 0.565941 24.2538C-0.315439 28.6848 -0.16569 33.2591 1.0036 37.623C2.1729 41.9869 4.33039 46.0233 7.30918 49.4199C10.288 52.8166 14.0082 55.4825 18.1821 57.2114C22.356 58.9402 26.8717 59.6858 31.3798 59.3903C34.8876 59.1604 38.3176 58.305 41.5103 56.8726C43.022 56.1943 43.5087 54.3442 42.6802 52.9093L39.6784 47.71C38.85 46.2751 37.02 45.8111 35.4645 46.3818C33.9036 46.9545 32.2641 47.303 30.5948 47.4124C27.9239 47.5875 25.2486 47.1458 22.7757 46.1215C20.3028 45.0972 18.0988 43.5178 16.334 41.5054C14.5691 39.493 13.2909 37.1016 12.5982 34.5162C11.9054 31.9308 11.8167 29.2207 12.3389 26.5956C12.8611 23.9704 13.9801 21.5005 15.6095 19.377C17.239 17.2536 19.335 15.5334 21.7356 14.3495C23.2359 13.6096 24.8301 13.0917 26.4682 12.8072C28.1007 12.5238 29.4535 11.2068 29.4535 9.54996V3.54639Z" fill="#DAE9F5"/>
<path d="M29.4535 3.54639C29.4535 1.88953 28.1069 0.530566 26.4586 0.699036C22.9775 1.05485 19.5793 2.02908 16.4265 3.58384C12.3747 5.58202 8.83673 8.48552 6.08647 12.0697C3.3362 15.6539 1.44732 19.8228 0.565941 24.2538C-0.315439 28.6848 -0.16569 33.2591 1.0036 37.623C2.1729 41.9869 4.33039 46.0233 7.30918 49.4199C10.288 52.8166 14.0082 55.4825 18.1821 57.2114C22.356 58.9402 26.8717 59.6858 31.3798 59.3903C34.8876 59.1604 38.3176 58.305 41.5103 56.8726C43.022 56.1943 43.5087 54.3442 42.6802 52.9093L39.6784 47.71C38.85 46.2751 37.02 45.8111 35.4645 46.3818C33.9036 46.9545 32.2641 47.303 30.5948 47.4124C27.9239 47.5875 25.2486 47.1458 22.7757 46.1215C20.3028 45.0972 18.0988 43.5178 16.334 41.5054C14.5691 39.493 13.2909 37.1016 12.5982 34.5162C11.9054 31.9308 11.8167 29.2207 12.3389 26.5956C12.8611 23.9704 13.9801 21.5005 15.6095 19.377C17.239 17.2536 19.335 15.5334 21.7356 14.3495C23.2359 13.6096 24.8301 13.0917 26.4682 12.8072C28.1007 12.5238 29.4535 11.2068 29.4535 9.54996V3.54639Z" stroke="#DAE9F5"/>
</g>
<g clip-path="url(#clip1_1_2226)">
<path d="M31.4595 22.0398C31.4531 22.0597 31.4067 22.0975 31.3561 22.1194C31.3055 22.1433 31.257 22.1712 31.2506 22.1811C31.2443 22.1931 31.2 22.2229 31.1536 22.2508C31.0777 22.2966 31.065 22.2986 31.0481 22.2707C31.0334 22.2468 31.0038 22.2428 30.8941 22.2528C30.7634 22.2647 30.7549 22.2607 30.6474 22.1931C30.5777 22.1473 30.5124 22.1194 30.4723 22.1214C30.4385 22.1214 30.3795 22.1154 30.3415 22.1094C30.2867 22.0975 30.274 22.1015 30.2613 22.1373C30.255 22.1612 30.2634 22.199 30.2845 22.2289C30.3204 22.2826 30.3141 22.3005 30.2445 22.3244C30.2339 22.3264 30.2255 22.3722 30.2213 22.424C30.217 22.4976 30.2234 22.5175 30.2487 22.5175C30.2867 22.5195 30.1664 22.627 30.0926 22.6589C30.0694 22.6688 30.0103 22.6987 29.9639 22.7265C29.8859 22.7703 29.8606 22.7743 29.7361 22.7624C29.6074 22.7524 29.599 22.7484 29.6285 22.7166C29.6559 22.6867 29.6538 22.6808 29.5906 22.6529C29.5547 22.637 29.4767 22.625 29.4176 22.627C29.3606 22.627 29.2552 22.621 29.1856 22.6111C29.1159 22.5991 29.0358 22.5892 29.0063 22.5872C28.9767 22.5852 28.9282 22.5733 28.8966 22.5573C28.8459 22.5354 28.8333 22.5374 28.7784 22.5792C28.7426 22.6051 28.7109 22.6509 28.7025 22.6827C28.6877 22.7464 28.635 22.7723 28.5865 22.7405C28.5084 22.6867 28.4388 22.6688 28.2954 22.6688C28.1583 22.6668 28.1414 22.6708 28.1414 22.7046C28.1414 22.7902 28.0929 22.8878 28.0233 22.9356C27.9853 22.9634 27.9558 22.9953 27.9621 23.0092C27.9748 23.045 27.8904 23.1346 27.844 23.1346C27.8208 23.1346 27.7997 23.1525 27.7913 23.1824C27.7849 23.2103 27.7659 23.2361 27.7491 23.2421C27.7322 23.2481 27.7195 23.2799 27.7195 23.3138C27.7195 23.3536 27.709 23.3735 27.6879 23.3735C27.652 23.3735 27.6436 23.4053 27.6774 23.4173C27.7153 23.4292 27.6752 23.5108 27.6267 23.5168C27.5951 23.5208 27.5845 23.5347 27.5888 23.5666C27.593 23.6004 27.5845 23.6124 27.5571 23.6124C27.5297 23.6124 27.517 23.6303 27.5149 23.6721C27.5128 23.7059 27.5213 23.7318 27.5339 23.7318C27.5487 23.7318 27.5487 23.7418 27.5318 23.7597C27.5149 23.7776 27.5149 23.7915 27.5276 23.7995C27.5402 23.8075 27.5445 23.8254 27.536 23.8433C27.5297 23.8592 27.5424 23.8851 27.5634 23.901C27.5867 23.9149 27.5972 23.9329 27.5888 23.9408C27.5803 23.9488 27.593 23.9846 27.6162 24.0224C27.6373 24.0603 27.6457 24.0901 27.6352 24.0901C27.6014 24.0901 27.6099 24.1538 27.6457 24.1777C27.6647 24.1897 27.6837 24.2354 27.6921 24.2772C27.7027 24.339 27.6963 24.3608 27.6689 24.3808C27.6436 24.3967 27.6352 24.4186 27.6457 24.4464C27.6626 24.5002 27.593 24.534 27.4981 24.5161C27.4453 24.5082 27.4242 24.4942 27.4284 24.4703C27.4327 24.4504 27.4179 24.4365 27.3905 24.4325C27.3652 24.4285 27.3188 24.4007 27.285 24.3668C27.2407 24.323 27.2323 24.3031 27.2513 24.2852C27.2913 24.2474 27.2829 24.2175 27.2112 24.1419C27.1078 24.0304 27.0213 23.9886 26.9412 24.0105C26.899 24.0224 26.8526 24.0205 26.8104 24.0065C26.764 23.9906 26.7387 23.9926 26.7218 24.0085C26.7092 24.0205 26.6733 24.0304 26.6417 24.0304C26.61 24.0304 26.572 24.0463 26.5573 24.0682C26.4898 24.1558 26.3168 24.126 26.3421 24.0304C26.3484 24.0085 26.3463 23.9767 26.34 23.9587C26.3295 23.9309 26.3168 23.9329 26.2493 23.9727C26.205 23.9966 26.1544 24.0344 26.1354 24.0563C26.1122 24.0822 26.0974 24.0881 26.0869 24.0722C26.0595 24.0304 26.0384 24.0503 26.0194 24.1339C26.0004 24.2175 25.9983 24.2195 25.9202 24.2135C25.8738 24.2096 25.819 24.2195 25.7916 24.2374C25.7325 24.2733 25.7156 24.2613 25.7156 24.1877C25.7156 24.1518 25.7009 24.124 25.6734 24.11C25.6397 24.0921 25.6313 24.0682 25.6313 23.9906C25.6313 23.9149 25.6207 23.8831 25.5891 23.8572C25.5659 23.8373 25.5469 23.8075 25.5469 23.7895C25.5469 23.7716 25.5321 23.7457 25.5152 23.7318C25.4984 23.7179 25.4836 23.694 25.4836 23.6801C25.4836 23.6243 25.4077 23.6542 25.3212 23.7457C25.2389 23.8313 25.2284 23.8373 25.1777 23.8154C25.0491 23.7597 24.893 23.9169 24.893 24.1021C24.893 24.1399 24.8845 24.1697 24.8719 24.1697C24.8613 24.1697 24.8508 24.1558 24.8508 24.1379C24.8508 24.116 24.8381 24.112 24.8107 24.12C24.7749 24.1299 24.7664 24.116 24.7474 24.0264C24.7348 23.9687 24.7221 23.903 24.7179 23.8811C24.7158 23.8532 24.6947 23.8393 24.6504 23.8373C24.6145 23.8353 24.5513 23.8274 24.507 23.8194C24.4416 23.8094 24.4163 23.8154 24.3762 23.8512C24.3234 23.897 24.2602 23.895 24.2602 23.8453C24.2602 23.8313 24.2306 23.7935 24.1969 23.7617C24.1547 23.7238 24.1378 23.692 24.1463 23.6681C24.18 23.5646 24.0513 23.5964 23.9965 23.7039C23.9733 23.7497 23.929 23.7875 23.8594 23.8214C23.7265 23.8851 23.6611 23.8871 23.6801 23.8294C23.6906 23.7995 23.6885 23.7915 23.6717 23.8015C23.6569 23.8094 23.6231 23.7915 23.5936 23.7617C23.5282 23.694 23.5008 23.7119 23.5008 23.8234C23.5008 23.8851 23.4881 23.9229 23.4586 23.9508C23.4354 23.9727 23.4164 24.0085 23.4164 24.0304C23.4164 24.0842 23.37 24.0802 23.3152 24.0244C23.2645 23.9747 23.2561 23.9209 23.292 23.901C23.3278 23.8791 23.351 23.8035 23.3278 23.7756C23.3152 23.7637 23.2688 23.7517 23.2245 23.7517C23.1802 23.7517 23.138 23.7418 23.1317 23.7318C23.1253 23.7199 23.0958 23.7119 23.0663 23.7119C23.0283 23.7119 23.0156 23.7219 23.0156 23.7557C23.0156 23.7955 23.0135 23.7955 22.9734 23.7617C22.9376 23.7318 22.9207 23.7298 22.8384 23.7497C22.7857 23.7617 22.7182 23.7716 22.6866 23.7716C22.6359 23.7716 22.6317 23.7657 22.6402 23.7099C22.6486 23.6601 22.6423 23.6462 22.6001 23.6303C22.5558 23.6144 22.5516 23.6004 22.5516 23.4909V23.3695L22.3997 23.3834C22.3006 23.3914 22.2373 23.4073 22.2204 23.4272C22.1972 23.4551 22.1824 23.4551 22.1002 23.4332C22.0495 23.4193 21.9968 23.4153 21.9863 23.4213C21.9736 23.4272 21.9441 23.4093 21.9209 23.3795C21.8977 23.3476 21.866 23.3118 21.8555 23.2979C21.8281 23.27 21.6108 23.264 21.5918 23.2939C21.5728 23.3237 21.4631 23.3178 21.4336 23.2839C21.4188 23.268 21.3935 23.2541 21.3788 23.2541C21.3619 23.2541 21.3492 23.2342 21.3492 23.2083C21.3492 23.1645 21.345 23.1625 21.1699 23.1685C21.0117 23.1724 20.9885 23.1685 20.9611 23.1326C20.9463 23.1107 20.8978 23.0749 20.8556 23.053C20.7881 23.0192 20.767 23.0172 20.6974 23.0371C20.6299 23.057 20.6025 23.053 20.5202 23.0192L20.4253 22.9794L20.4127 23.0192C20.4042 23.057 20.3937 23.059 20.2903 23.045C20.2292 23.0351 20.0984 23.0271 19.9992 23.0271C19.8537 23.0251 19.8031 23.0172 19.7271 22.9794C19.6681 22.9495 19.6132 22.9356 19.5795 22.9415C19.4381 22.9674 19.3643 22.9933 19.301 23.0411C19.2293 23.0928 19.0985 23.1048 19.0331 23.0669C19.0142 23.057 18.9867 23.0669 18.9551 23.0948C18.9087 23.1346 18.9024 23.1366 18.8159 23.1087C18.7547 23.0888 18.7083 23.0849 18.6745 23.0968C18.6471 23.1068 18.5733 23.1147 18.51 23.1147C18.3666 23.1147 18.3307 23.1326 18.2695 23.2282C18.2358 23.2819 18.2252 23.3237 18.2337 23.3775C18.2442 23.4591 18.2252 23.485 18.1008 23.5427C18.0607 23.5606 17.9742 23.6303 17.9109 23.696L17.7949 23.8154L17.7 23.7975C17.6199 23.7836 17.6051 23.7736 17.6051 23.7318C17.6051 23.69 17.5967 23.682 17.5502 23.688C17.5207 23.692 17.4849 23.682 17.4701 23.6661C17.4448 23.6363 17.3752 23.6442 17.2528 23.69C17.1832 23.7139 17.1832 23.7179 17.2275 23.7816C17.2465 23.8075 17.2549 23.8473 17.2486 23.8672C17.2402 23.8891 17.2486 23.9149 17.2676 23.9309C17.3119 23.9647 17.3077 23.9906 17.257 23.9906C17.2338 23.9906 17.2149 23.9986 17.2149 24.0105C17.2149 24.0205 17.2338 24.0304 17.257 24.0304C17.2929 24.0304 17.2971 24.0364 17.2802 24.0642C17.2655 24.0881 17.2697 24.1041 17.295 24.122C17.3267 24.1439 17.3267 24.1558 17.3013 24.2334C17.2866 24.2792 17.2697 24.3529 17.2634 24.3927C17.2549 24.4584 17.2592 24.4703 17.3056 24.4863C17.3393 24.4982 17.3604 24.5261 17.3709 24.5679C17.3794 24.6097 17.4174 24.6594 17.4743 24.7092C17.5481 24.7689 17.5671 24.7988 17.5671 24.8486C17.5671 24.8904 17.5819 24.9242 17.6114 24.9481C17.6409 24.97 17.6578 25.0038 17.6578 25.0436C17.6578 25.1332 17.8076 25.3442 17.9046 25.388C17.9363 25.4019 17.9637 25.4238 17.9679 25.4358C17.9784 25.4676 17.8856 25.5015 17.8181 25.4895C17.7211 25.4716 17.6831 25.5731 17.7633 25.6368C17.7865 25.6568 17.8055 25.6846 17.8055 25.7005C17.8055 25.7145 17.8224 25.7404 17.8434 25.7543C17.8856 25.7822 17.8941 25.8319 17.8962 26.0409C17.9004 26.3017 17.8224 26.4271 17.6578 26.4311C17.5144 26.4331 17.3435 26.4928 17.3288 26.5446C17.3224 26.5685 17.2507 26.6461 17.1684 26.7178C16.9048 26.9447 16.6031 27.2353 16.6031 27.2612C16.6031 27.2751 16.5399 27.3587 16.4597 27.4463C16.3817 27.5359 16.2952 27.6474 16.2656 27.6932C16.2361 27.739 16.1728 27.8206 16.1243 27.8743C16.0737 27.9281 16.0167 27.9977 15.9977 28.0276C15.9767 28.0575 15.9302 28.1192 15.8923 28.1669C15.8543 28.2127 15.8079 28.2824 15.791 28.3202C15.7573 28.3839 15.7594 28.3899 15.7974 28.4257C15.8712 28.4954 15.9155 28.8318 15.8796 29.0548C15.8691 29.1304 15.8965 29.1861 15.9471 29.1861C15.9598 29.1861 15.9788 29.2021 15.9893 29.222C15.9999 29.2419 16.0315 29.2678 16.0589 29.2817C16.099 29.3016 16.1074 29.3235 16.1074 29.3952C16.1053 29.5027 16.0906 29.5186 16.0378 29.4688C15.9999 29.433 15.8564 29.3952 15.81 29.4091C15.7995 29.4131 15.7699 29.3952 15.7425 29.3693C15.6813 29.3116 15.6117 29.3116 15.6117 29.3693C15.6117 29.4509 15.5864 29.5027 15.5463 29.5146C15.4641 29.5405 15.3734 29.7694 15.3185 30.0899C15.3101 30.1456 15.2911 30.1934 15.2784 30.1974C15.2658 30.2014 15.2067 30.2491 15.1477 30.3029C15.0464 30.3964 15.0401 30.4084 15.0211 30.5457C14.9874 30.7866 14.9852 30.7786 15.097 30.7786C15.1793 30.7786 15.192 30.7826 15.1814 30.8125C15.1709 30.8344 15.1814 30.8583 15.2067 30.8782C15.2278 30.8941 15.2679 30.9598 15.2932 31.0215L15.3417 31.135L15.4451 31.125C15.5084 31.119 15.5484 31.123 15.5484 31.137C15.5484 31.1469 15.5653 31.1728 15.5864 31.1927C15.6328 31.2385 15.6708 31.3141 15.6792 31.3758C15.6856 31.4296 15.7151 31.4336 15.8923 31.4037C15.9619 31.3938 15.9809 31.3977 16.0357 31.4475C16.0927 31.4993 16.099 31.5152 16.0863 31.5849C16.0737 31.6764 16.1117 31.7481 16.1644 31.7282C16.1876 31.7202 16.1939 31.7003 16.1855 31.6625C16.177 31.6147 16.1813 31.6107 16.215 31.6227C16.2952 31.6545 16.3205 31.6565 16.3774 31.6366C16.4196 31.6207 16.4344 31.6028 16.4344 31.563C16.4344 31.5032 16.4956 31.3957 16.5293 31.3957C16.542 31.3957 16.5609 31.4037 16.5736 31.4137C16.5842 31.4236 16.6158 31.4356 16.6453 31.4395C16.677 31.4435 16.7002 31.4614 16.7065 31.4833C16.7128 31.5251 16.7719 31.5749 16.8963 31.6486C16.9934 31.7063 17.0334 31.7063 17.063 31.6466C17.0841 31.6028 17.0925 31.6008 17.1642 31.6147C17.2064 31.6247 17.2507 31.6406 17.2613 31.6505C17.276 31.6645 17.3013 31.6645 17.3351 31.6525C17.3963 31.6306 17.4511 31.6545 17.5207 31.7302C17.565 31.7779 17.5734 31.7799 17.6515 31.758C17.7781 31.7222 17.8645 31.7282 17.9046 31.774C17.9278 31.7979 17.9679 31.8138 18.0059 31.8138C18.0417 31.8138 18.0818 31.8237 18.0966 31.8377C18.1156 31.8556 18.1345 31.8556 18.1746 31.8377C18.2042 31.8237 18.2442 31.8138 18.2632 31.8138C18.2822 31.8138 18.3223 31.7919 18.3518 31.766C18.4045 31.7202 18.4151 31.7182 18.5501 31.7342C18.702 31.7521 18.7737 31.7998 18.7758 31.8874C18.7758 31.9372 18.799 31.9551 18.9024 31.983C18.9572 31.9989 18.9888 32.0288 19.0395 32.1084C19.1006 32.2099 19.1049 32.2119 19.204 32.2119C19.2588 32.2119 19.3242 32.2 19.3517 32.186C19.4234 32.1502 19.5352 32.0487 19.5352 32.0208C19.5352 32.0089 19.5499 31.987 19.5668 31.973C19.5837 31.9591 19.5984 31.9312 19.5984 31.9113C19.5984 31.8894 19.6132 31.8735 19.6301 31.8735C19.6491 31.8735 19.6849 31.8616 19.7102 31.8456C19.7567 31.8178 20.052 31.7799 20.3156 31.766C20.3916 31.762 20.4949 31.7441 20.5456 31.7262C20.5962 31.7083 20.7143 31.6884 20.8092 31.6804C21.0181 31.6665 21.0413 31.6505 21.1763 31.4117C21.2606 31.2624 21.2838 31.2365 21.3302 31.2365C21.3598 31.2365 21.402 31.2226 21.4252 31.2066C21.4463 31.1907 21.499 31.1768 21.5412 31.1768C21.6129 31.1768 21.6867 31.131 21.6867 31.0852C21.6867 31.0753 21.7142 31.0295 21.7479 30.9837L21.807 30.9001L21.8681 30.9598C21.9399 31.0295 21.982 31.0334 21.982 30.9697C21.982 30.9379 21.9673 30.916 21.9399 30.908C21.8934 30.8941 21.8217 30.8045 21.8407 30.7866C21.847 30.7806 21.904 30.7707 21.9673 30.7647C22.0727 30.7548 22.0833 30.7568 22.0981 30.7966C22.1318 30.8981 22.3364 30.8881 22.3111 30.7866C22.2921 30.7189 22.3554 30.709 22.387 30.7747C22.4124 30.8224 22.425 30.8284 22.5579 30.8324C22.6824 30.8384 22.6992 30.8344 22.6992 30.8025C22.6992 30.7826 22.7119 30.7488 22.7288 30.7289C22.7562 30.6931 22.7625 30.6931 22.7984 30.7209C22.8701 30.7786 22.887 30.7786 22.946 30.7209C23.0177 30.6512 23.1063 30.6274 23.1422 30.6692C23.1612 30.6891 23.2076 30.699 23.2962 30.699C23.427 30.699 23.5641 30.7548 23.5641 30.8065C23.5641 30.8563 23.6484 30.9359 23.7181 30.9479C23.8341 30.9717 23.8805 31.0096 23.8805 31.0872C23.8805 31.1628 23.9016 31.1748 23.9438 31.127C23.9838 31.0812 24.0281 31.0912 24.0281 31.1469C24.0281 31.2027 24.0619 31.2086 24.1209 31.1668C24.1442 31.1509 24.1948 31.137 24.2327 31.137C24.2918 31.137 24.3024 31.1449 24.3024 31.1827C24.3024 31.2086 24.2834 31.2464 24.2602 31.2664C24.2201 31.3002 24.2032 31.3559 24.2306 31.3559C24.237 31.3559 24.2707 31.338 24.3045 31.3141C24.3804 31.2624 24.4163 31.2803 24.3994 31.3639C24.3888 31.4137 24.3952 31.4375 24.4268 31.4634C24.4711 31.5012 24.4817 31.4933 24.5006 31.4017C24.5091 31.3679 24.5386 31.3241 24.5681 31.3062C24.6145 31.2783 24.6251 31.2783 24.6884 31.3082C24.7242 31.3281 24.8128 31.352 24.8824 31.3639L25.009 31.3858L25.0195 31.4853C25.0322 31.6087 25.0997 31.7182 25.1503 31.7023C25.1714 31.6963 25.2157 31.7123 25.2495 31.7361C25.3022 31.772 25.3191 31.776 25.3465 31.7541C25.3634 31.7401 25.3781 31.7182 25.3781 31.7043C25.3781 31.6784 25.4224 31.6545 25.4731 31.6545C25.4899 31.6545 25.5089 31.6844 25.5152 31.7282C25.5406 31.8616 25.5469 31.8735 25.6059 31.8735H25.6608L25.6017 31.9312C25.5363 31.9949 25.5342 32.0626 25.5975 32.0626C25.6587 32.0626 25.6608 32.1004 25.6017 32.1661C25.5553 32.2179 25.5511 32.2398 25.5595 32.3373C25.5701 32.4568 25.53 32.5503 25.4709 32.5503C25.4541 32.5503 25.4414 32.5623 25.4414 32.5782C25.4414 32.6299 25.4667 32.6697 25.4984 32.6697C25.5174 32.6697 25.5279 32.6877 25.5258 32.7135C25.5237 32.7394 25.5216 32.7772 25.5237 32.7972C25.5258 32.833 25.5279 32.833 25.568 32.7991C25.6081 32.7633 25.6102 32.7653 25.6102 32.8071C25.6102 32.8449 25.6144 32.8469 25.6524 32.825C25.6882 32.8031 25.6988 32.8051 25.7156 32.829C25.7262 32.8449 25.7367 32.8788 25.7367 32.9027C25.7367 32.9345 25.7494 32.9484 25.7768 32.9484C25.8106 32.9484 25.819 32.9644 25.8253 33.0221C25.8317 33.0918 25.838 33.0977 25.8949 33.0977C25.9477 33.0977 25.9582 33.0898 25.9645 33.044C25.9688 33.0042 25.9856 32.9843 26.0236 32.9763C26.0911 32.9604 26.0995 32.9683 26.1185 33.0818C26.1312 33.1555 26.127 33.1833 26.1017 33.2012C26.0784 33.2192 26.0742 33.247 26.0848 33.3346C26.0995 33.4441 26.0995 33.4461 26.0447 33.4461C25.9814 33.4461 25.9835 33.4441 26.0109 33.5178C26.0278 33.5596 26.0405 33.5655 26.0574 33.5496C26.0721 33.5357 26.1017 33.5257 26.1227 33.5257C26.1607 33.5257 26.1628 33.5357 26.1502 33.6491C26.1417 33.7208 26.1227 33.7845 26.1038 33.7964C26.0574 33.8303 26.0679 33.8502 26.1291 33.8383C26.1628 33.8323 26.1881 33.8383 26.1945 33.8562C26.2008 33.8721 26.2282 33.884 26.2577 33.884C26.2957 33.884 26.3147 33.9 26.3316 33.9457C26.3506 33.9995 26.3611 34.0055 26.4202 33.9975C26.456 33.9935 26.5003 33.9836 26.5214 33.9756C26.5467 33.9637 26.5594 33.9756 26.5699 34.0214C26.5784 34.0632 26.5974 34.0831 26.6227 34.0831C26.667 34.0831 26.6712 34.107 26.6712 34.3518C26.6712 34.5529 26.6522 34.6345 26.5974 34.6464C26.5552 34.6584 26.5552 34.6624 26.5847 34.7042C26.6016 34.7301 26.6417 34.752 26.6733 34.7559C26.7028 34.7599 26.7281 34.7738 26.7281 34.7858C26.7281 34.7997 26.7767 34.8395 26.8336 34.8754C26.8927 34.9112 26.9391 34.949 26.9391 34.959C26.9391 34.9709 26.9728 34.9789 27.0129 34.9789C27.0593 34.9789 27.0867 34.9888 27.0867 35.0048C27.0867 35.0505 27.1395 35.1381 27.1669 35.1381C27.1817 35.1381 27.1943 35.1103 27.1943 35.0724C27.1964 35.0167 27.2006 35.0207 27.2217 35.1083C27.2407 35.1799 27.2576 35.2098 27.2892 35.2158C27.3567 35.2277 27.3863 35.2616 27.3736 35.3193C27.3652 35.3591 27.3778 35.385 27.4263 35.4288C27.4727 35.4706 27.4854 35.4984 27.477 35.5303C27.458 35.602 27.4812 35.584 27.5424 35.4805C27.574 35.4288 27.6267 35.3452 27.6626 35.2914C27.7111 35.2178 27.7217 35.1819 27.7111 35.1361C27.7006 35.0864 27.7048 35.0784 27.7259 35.0943C27.747 35.1103 27.7681 35.0983 27.8124 35.0466C27.8883 34.955 27.9052 34.8614 27.8545 34.7818C27.8187 34.7241 27.8187 34.7201 27.8567 34.6803C27.8777 34.6584 27.9136 34.6405 27.9368 34.6405C27.96 34.6405 28.0317 34.6246 28.0971 34.6027C28.3144 34.535 28.4979 34.4991 28.538 34.519C28.597 34.5489 28.7194 34.5509 28.7848 34.525C28.8734 34.4892 28.9704 34.3658 28.9535 34.308C28.9472 34.2802 28.9514 34.2642 28.9641 34.2662C28.9746 34.2702 28.9978 34.2503 29.0126 34.2244C29.0252 34.1966 29.0527 34.1727 29.0695 34.1687C29.0885 34.1627 29.0927 34.1667 29.0801 34.1767C29.0674 34.1846 29.04 34.2423 29.021 34.3021C28.9999 34.3618 28.9641 34.4315 28.9388 34.4553L28.8945 34.5011H28.9451C28.9746 34.5011 29.0084 34.5111 29.0231 34.525C29.0421 34.5429 29.059 34.539 29.097 34.5051C29.156 34.4534 29.2277 34.4494 29.3438 34.4932C29.4218 34.523 29.4345 34.523 29.502 34.4932C29.5589 34.4673 29.5779 34.4454 29.5884 34.3897C29.5969 34.3459 29.5927 34.31 29.5779 34.2961C29.5315 34.2523 29.5526 34.1508 29.6285 34.0612C29.715 33.9577 29.7213 33.9099 29.6496 33.884C29.5863 33.8621 29.5821 33.8223 29.6391 33.7746C29.6623 33.7546 29.6813 33.7487 29.6813 33.7606C29.6813 33.7726 29.6728 33.7885 29.6602 33.7945C29.6222 33.8164 29.6391 33.8621 29.6876 33.8681C29.753 33.8761 29.7614 33.9557 29.7024 34.0134C29.6349 34.0811 29.6117 34.1986 29.6496 34.2722C29.6665 34.3041 29.6918 34.3717 29.7066 34.4215C29.7319 34.5051 29.7382 34.5111 29.8078 34.5111C29.8669 34.5131 29.888 34.523 29.9091 34.5688C29.9302 34.6066 29.9492 34.6206 29.9724 34.6106C29.9934 34.6027 30.0377 34.5927 30.0736 34.5867C30.1306 34.5768 30.1411 34.5827 30.1538 34.6285C30.1622 34.6584 30.1622 34.6922 30.1538 34.7022C30.1327 34.738 30.2192 34.7977 30.2719 34.7858C30.3056 34.7778 30.3162 34.7798 30.3056 34.7957C30.2845 34.8276 30.1727 34.8256 30.0483 34.7898C29.9913 34.7738 29.8795 34.7599 29.7973 34.7599C29.7171 34.7599 29.6032 34.744 29.5442 34.7281C29.4872 34.7101 29.3501 34.6902 29.2446 34.6823L29.0484 34.6703L29.1392 34.7559L29.2299 34.8415L29.2931 34.8077C29.3522 34.7758 29.3606 34.7758 29.4977 34.8296C29.5779 34.8594 29.6602 34.8794 29.6834 34.8734C29.7677 34.8515 29.8247 34.9829 29.7572 35.0386C29.7403 35.0505 29.6602 35.0705 29.5779 35.0824C29.4007 35.1063 29.3438 35.1381 29.3775 35.1919C29.407 35.2397 29.4977 35.2476 29.5589 35.2098C29.6053 35.1819 29.6117 35.1819 29.6454 35.2178C29.6665 35.2416 29.7066 35.2576 29.7445 35.2576C29.7846 35.2576 29.8141 35.2715 29.8289 35.2974C29.8416 35.3213 29.8922 35.3471 29.9449 35.3611C30.0167 35.379 30.0462 35.4009 30.0757 35.4507C30.1031 35.4984 30.139 35.5263 30.2086 35.5482C30.2613 35.5661 30.3394 35.592 30.3837 35.6079C30.4849 35.6438 30.5334 35.6438 30.5651 35.6079C30.5946 35.5741 30.7423 35.5542 31.0102 35.5462C31.2717 35.5402 31.2633 35.5422 31.2633 35.5004C31.2633 35.4407 31.2886 35.4327 31.3392 35.4785C31.3983 35.5303 31.4384 35.5183 31.4974 35.4327L31.5417 35.3671L31.5291 35.4646C31.5164 35.5582 31.5185 35.5601 31.5544 35.5303C31.6113 35.4805 31.6345 35.4885 31.6599 35.5601C31.6725 35.602 31.6809 35.6119 31.6831 35.586C31.6852 35.5542 31.6957 35.5582 31.7653 35.6199C31.8075 35.6577 31.8729 35.6955 31.9088 35.7015C31.9699 35.7114 31.9741 35.7094 31.9636 35.6637C31.9573 35.6278 31.9636 35.6159 31.991 35.6159C32.0206 35.6159 32.0227 35.6099 32.0037 35.588C31.9847 35.5661 31.9889 35.5502 32.0332 35.5084L32.0859 35.4586L32.1197 35.5064C32.1429 35.5383 32.1492 35.5741 32.1387 35.6159C32.1281 35.6637 32.1324 35.6856 32.164 35.7075C32.1914 35.7294 32.1935 35.7413 32.1767 35.7473C32.1619 35.7532 32.1492 35.7851 32.1492 35.8149C32.1492 35.8687 32.1556 35.8727 32.2378 35.8786C32.3412 35.8866 32.3623 35.9185 32.2863 35.9503C32.2547 35.9642 32.2336 35.9901 32.2336 36.014C32.2336 36.0558 32.202 36.0678 32.1809 36.0339C32.1598 36.0021 32.1113 36.01 32.0627 36.0558C32.0374 36.0797 32.0058 36.0916 31.9868 36.0857C31.9678 36.0777 31.9067 36.1016 31.8455 36.1414C31.6599 36.2569 31.5881 36.2827 31.527 36.2569C31.4806 36.237 31.4742 36.239 31.4742 36.2688C31.4742 36.2927 31.4278 36.3265 31.3329 36.3703C31.1494 36.4539 30.9258 36.6052 30.9258 36.6431C30.9258 36.657 30.9089 36.6709 30.8878 36.6709C30.8309 36.6709 30.6136 36.8103 30.5145 36.9078C30.4385 36.9854 30.4343 36.9934 30.4659 37.0173C30.4934 37.0352 30.4955 37.0491 30.4786 37.0651C30.4512 37.0909 30.5081 37.1168 30.6347 37.1387C30.6938 37.1487 30.7254 37.1407 30.7887 37.1009C30.8773 37.0432 30.968 37.0352 31.0988 37.073C31.1642 37.0909 31.1916 37.0909 31.2232 37.073C31.2443 37.0591 31.2675 37.0491 31.2738 37.0491C31.2907 37.0491 31.2865 37.1089 31.2696 37.1089C31.2591 37.1089 31.2422 37.1168 31.2274 37.1248C31.1958 37.1427 31.4531 37.4055 31.5481 37.4532C31.6071 37.4811 31.6177 37.4811 31.6852 37.4453C31.7252 37.4254 31.7738 37.4094 31.7927 37.4075C31.8117 37.4075 31.8328 37.3895 31.8391 37.3676C31.8476 37.3358 31.8687 37.3278 31.9425 37.3278C32.029 37.3278 32.0332 37.3318 32.0374 37.3875C32.0438 37.4632 31.9995 37.4831 31.9277 37.4393C31.8834 37.4114 31.8771 37.4114 31.8877 37.4373C31.8961 37.4532 31.9088 37.4672 31.9193 37.4672C31.9299 37.4672 31.9615 37.505 31.9931 37.5488C32.0227 37.5946 32.0649 37.6364 32.0881 37.6404C32.1302 37.6523 32.1408 37.6762 32.1091 37.6941C32.0986 37.7021 32.0986 37.7379 32.1091 37.7797C32.145 37.927 32.1324 38.0385 32.0754 38.0883C32.029 38.1301 32.0227 38.152 32.0184 38.3231C32.0121 38.5103 32.0121 38.5123 31.9488 38.5401C31.9151 38.556 31.8645 38.5839 31.8391 38.6018L31.7927 38.6357L31.8708 38.7073C31.9256 38.7571 31.9763 38.783 32.0417 38.7929C32.1176 38.8049 32.1366 38.8168 32.1598 38.8706C32.1999 38.9582 32.3138 39.0139 32.4066 38.988C32.4445 38.9761 32.5078 38.9741 32.5458 38.982C32.6175 38.996 32.7757 38.9661 32.8601 38.9243C32.8833 38.9104 32.9149 38.8746 32.9255 38.8407C32.9424 38.7969 32.9613 38.781 33.0014 38.781C33.052 38.781 33.1195 38.7352 33.1195 38.6994C33.1195 38.6894 33.1427 38.6815 33.1702 38.6815C33.2081 38.6815 33.225 38.6675 33.2356 38.6257C33.2419 38.5959 33.2862 38.5162 33.3347 38.4486C33.4402 38.2953 33.5372 38.2455 33.8726 38.1738C34.1595 38.1141 34.1911 38.1121 34.2502 38.1659C34.3092 38.2176 34.3345 38.2037 34.3852 38.0922C34.4147 38.0305 34.4463 37.9947 34.5012 37.9708C34.5434 37.9509 34.575 37.923 34.575 37.9031C34.575 37.8613 34.6425 37.8374 34.7058 37.8553C34.7416 37.8673 34.748 37.8633 34.7374 37.8374C34.7269 37.8135 34.7395 37.7976 34.7775 37.7857C34.8239 37.7678 34.8281 37.7598 34.807 37.7339C34.7859 37.712 34.7859 37.6941 34.8049 37.6603C34.845 37.5886 34.9463 37.5468 35.077 37.5468C35.2163 37.5468 35.2985 37.5866 35.3892 37.6941C35.4546 37.7717 35.5031 37.7837 35.5453 37.7359C35.5685 37.708 35.5749 37.71 35.5981 37.7399C35.6213 37.7697 35.6276 37.7697 35.6845 37.7279C35.7246 37.6981 35.7605 37.6881 35.7942 37.6961C35.8449 37.708 35.8449 37.7041 35.8343 37.6384C35.828 37.5986 35.8301 37.5667 35.8427 37.5667C35.8533 37.5667 35.8617 37.5866 35.8617 37.6105C35.8617 37.6881 35.8913 37.712 35.9693 37.7001C36.0094 37.6941 36.1022 37.6782 36.1781 37.6662C36.252 37.6543 36.3258 37.6344 36.3384 37.6205C36.3743 37.5846 36.3174 37.4672 36.2646 37.4672C36.2414 37.4672 36.2161 37.4572 36.2098 37.4473C36.2013 37.4353 36.2245 37.4274 36.2604 37.4274C36.3237 37.4274 36.3469 37.4015 36.3047 37.3776C36.2899 37.3696 36.2899 37.3537 36.3047 37.3278C36.3152 37.3079 36.3258 37.2721 36.3258 37.2502C36.3258 37.2283 36.3448 37.2004 36.368 37.1885C36.3954 37.1746 36.4102 37.1467 36.4102 37.1089C36.4102 37.0392 36.4123 37.0392 36.4988 37.081C36.5641 37.1128 36.5684 37.1128 36.6042 37.069C36.638 37.0292 36.638 37.0213 36.6106 36.9695C36.5831 36.9197 36.5641 36.9118 36.4587 36.8998C36.3912 36.8939 36.3047 36.874 36.2646 36.8541C36.1971 36.8222 36.1929 36.8242 36.1655 36.86C36.1402 36.8939 36.1359 36.8939 36.1359 36.864C36.1359 36.8242 36.1444 36.8262 35.9672 36.858C35.8575 36.8779 35.8259 36.8919 35.8048 36.9297C35.771 36.9954 35.7183 37.0292 35.6487 37.0292C35.5727 37.0292 35.482 36.9576 35.482 36.8979C35.482 36.8342 35.4441 36.8361 35.4272 36.8998C35.4209 36.9277 35.3956 36.9596 35.3745 36.9715C35.3534 36.9815 35.3217 37.0153 35.3049 37.0472C35.269 37.1109 35.0834 37.2084 34.999 37.2084C34.8977 37.2084 34.7016 37.0491 34.5856 36.872C34.5307 36.7864 34.3367 36.5435 34.2924 36.5017C34.2523 36.4619 34.3514 36.6032 34.4484 36.7207C34.5012 36.7864 34.5666 36.872 34.5919 36.9098C34.6151 36.9476 34.6931 37.0332 34.7627 37.0989C34.8345 37.1646 34.8914 37.2223 34.8914 37.2303C34.8914 37.2383 34.8745 37.2482 34.8556 37.2542C34.8345 37.2582 34.8028 37.2701 34.7817 37.2781C34.7585 37.286 34.7438 37.2781 34.7353 37.2542C34.7184 37.2044 34.5307 37.1089 34.4506 37.1089C34.4168 37.1089 34.3788 37.0969 34.3662 37.081C34.3493 37.0631 34.3156 37.0571 34.2607 37.0631C34.1679 37.075 34.1236 37.0392 34.1806 36.9994C34.2017 36.9854 34.2164 36.9675 34.2164 36.9596C34.2164 36.9496 34.2502 36.9158 34.2902 36.8799L34.3662 36.8182L34.3324 36.7386C34.3134 36.6968 34.2902 36.6431 34.2797 36.6212C34.2691 36.5993 34.2586 36.5634 34.2544 36.5415C34.2502 36.5137 34.2291 36.4997 34.1784 36.4957C34.1194 36.4898 34.1109 36.4838 34.1236 36.448C34.1341 36.4121 34.1299 36.4082 34.0835 36.4201C34.0329 36.432 34.0266 36.4261 34.0139 36.3624C33.9991 36.2847 33.9654 36.2748 33.8789 36.3226C33.822 36.3524 33.7313 36.3624 33.7313 36.3365C33.7313 36.3285 33.7608 36.2967 33.7945 36.2668C33.8641 36.2051 33.8663 36.1971 33.8388 36.1553C33.822 36.1315 33.8093 36.1295 33.765 36.1494C33.7144 36.1713 33.7102 36.1693 33.7102 36.1275C33.7102 36.0697 33.7481 36.0339 33.8093 36.0339C33.8367 36.0339 33.8578 36.024 33.8578 36.014C33.8578 35.9623 33.6827 36.0339 33.5794 36.1275C33.4908 36.2091 33.4296 36.2111 33.4971 36.1295C33.5224 36.1016 33.5414 36.0678 33.5414 36.0558C33.5414 36.0439 33.5646 36.024 33.5942 36.014C33.6279 36.0021 33.6427 35.9861 33.6342 35.9642C33.6279 35.9483 33.6321 35.9344 33.6448 35.9344C33.687 35.9344 33.668 35.8767 33.6152 35.8428C33.552 35.803 33.5309 35.8149 33.5541 35.8786C33.5731 35.9344 33.5688 35.9463 33.5288 35.9384C33.5119 35.9344 33.4992 35.9463 33.4992 35.9603C33.4992 35.9762 33.4845 36.0001 33.4676 36.014C33.4338 36.0399 33.4275 36.026 33.4338 35.9523C33.4359 35.9344 33.4233 35.9085 33.4043 35.8946C33.3874 35.8806 33.3727 35.8767 33.3727 35.8866C33.3727 35.8966 33.3389 35.8548 33.2988 35.795C33.2334 35.6975 33.225 35.6895 33.2124 35.7294C33.1955 35.7871 33.1449 35.7891 33.1217 35.7313C33.1069 35.6935 33.1048 35.6935 33.0921 35.7234C33.0774 35.7572 33.0731 35.7552 33.0394 35.7154C33.0183 35.6915 32.9761 35.6676 32.9424 35.6657C32.8959 35.6597 32.8896 35.6637 32.9107 35.6875C32.9613 35.7453 32.8917 35.7114 32.8242 35.6457C32.7673 35.59 32.7377 35.5761 32.6871 35.5801C32.6323 35.586 32.6238 35.594 32.6302 35.6358C32.6344 35.6736 32.6323 35.6796 32.6154 35.6557C32.5985 35.6318 32.5901 35.6358 32.5732 35.6756L32.5521 35.7254V35.6716C32.55 35.6398 32.531 35.6039 32.4994 35.582C32.4551 35.5502 32.453 35.5422 32.4783 35.5044C32.5057 35.4686 32.5036 35.4586 32.4635 35.4248C32.4171 35.387 32.4171 35.387 32.4277 35.4427C32.434 35.4726 32.4298 35.5024 32.4192 35.5084C32.3897 35.5263 32.2969 35.4606 32.2758 35.4049C32.2652 35.379 32.2463 35.3571 32.2336 35.3571C32.2231 35.3571 32.2125 35.3471 32.2125 35.3332C32.2125 35.3213 32.2188 35.3173 32.2273 35.3233C32.2336 35.3312 32.2589 35.3233 32.28 35.3034C32.3011 35.2854 32.318 35.2775 32.318 35.2874C32.318 35.2954 32.3327 35.2914 32.3496 35.2775C32.3749 35.2576 32.3876 35.2576 32.4129 35.2775C32.4298 35.2914 32.4846 35.3053 32.5331 35.3093C32.6323 35.3173 32.6787 35.3511 32.7314 35.4527C32.7588 35.5064 32.7715 35.5164 32.7778 35.4905C32.7863 35.4507 32.82 35.4447 32.8369 35.4845C32.8432 35.4984 32.8706 35.5124 32.8959 35.5124C32.9424 35.5124 32.9445 35.5084 32.917 35.4606C32.8981 35.4248 32.8959 35.3989 32.9128 35.371C32.9402 35.3193 32.9698 35.3591 32.955 35.4327C32.9466 35.4765 32.9508 35.4825 32.9719 35.4626C32.9951 35.4427 32.993 35.4168 32.9634 35.3292C32.8981 35.1342 32.9719 35.1361 33.0689 35.3312C33.0984 35.389 33.1322 35.4367 33.1427 35.4367C33.1533 35.4367 33.1596 35.4427 33.1596 35.4527C33.1575 35.4606 33.1596 35.4885 33.1617 35.5164C33.1659 35.5641 33.1659 35.5641 33.1849 35.5064C33.1955 35.4726 33.1976 35.4327 33.1891 35.4168C33.1807 35.4009 33.1723 35.3651 33.1702 35.3372C33.1702 35.3093 33.1596 35.2695 33.1512 35.2496C33.1385 35.2237 33.1406 35.2158 33.1575 35.2237C33.1702 35.2317 33.1849 35.2655 33.1934 35.2994C33.2018 35.3332 33.2229 35.3651 33.2419 35.371C33.263 35.379 33.3178 35.4109 33.3663 35.4427C33.4613 35.5064 33.4992 35.5004 33.4992 35.4248C33.4992 35.381 33.5056 35.379 33.5414 35.3969C33.5731 35.4128 33.5836 35.4387 33.5836 35.4964C33.5836 35.5801 33.552 35.6199 33.5351 35.5562C33.5224 35.5084 33.4824 35.5044 33.4655 35.5462C33.4528 35.5741 33.4486 35.5741 33.4275 35.5442C33.4043 35.5164 33.3959 35.5144 33.3558 35.5383C33.3305 35.5542 33.3094 35.584 33.3115 35.6059C33.3115 35.6418 33.3136 35.6418 33.3305 35.6C33.341 35.5761 33.3579 35.5562 33.3684 35.5562C33.3916 35.5562 33.3748 35.6716 33.3495 35.6875C33.3178 35.7055 33.3284 35.7313 33.3727 35.7453C33.3959 35.7512 33.4149 35.7751 33.4149 35.797C33.4149 35.8169 33.4254 35.8349 33.4359 35.8349C33.4486 35.8349 33.457 35.8269 33.457 35.8169C33.457 35.807 33.4866 35.795 33.5203 35.7871C33.6026 35.7731 33.6511 35.6716 33.6553 35.5164C33.6574 35.4128 33.6595 35.4069 33.7102 35.4128C33.7397 35.4148 33.7819 35.4188 33.8051 35.4188C33.8262 35.4188 33.8578 35.4288 33.8726 35.4387C33.9063 35.4666 33.9422 35.4447 33.9422 35.3969C33.9422 35.3432 34.0856 35.2576 34.1953 35.2436C34.2565 35.2357 34.2945 35.2158 34.3282 35.174C34.3535 35.1421 34.4063 35.0864 34.4442 35.0486C34.5159 34.9769 34.5265 34.9411 34.4885 34.8774C34.4506 34.8077 34.4801 34.7938 34.5476 34.8475C34.6066 34.8933 34.613 34.9072 34.5961 34.951C34.5666 35.0227 34.5687 35.0346 34.6193 35.0585C34.6552 35.0764 34.672 35.0744 34.7079 35.0446C34.7374 35.0187 34.7459 35.0167 34.7353 35.0386C34.7269 35.0545 34.7353 35.0505 34.7522 35.0306C34.7712 35.0087 34.7796 34.9868 34.7691 34.9809C34.7353 34.955 34.6615 34.7838 34.6509 34.7002C34.6362 34.5827 34.6383 34.4235 34.6573 34.322C34.6657 34.2802 34.7184 34.4394 34.7311 34.5409C34.7395 34.6106 34.7712 34.7121 34.8007 34.7679C34.8429 34.8475 34.8492 34.8754 34.8302 34.9032C34.8176 34.9231 34.8155 34.9391 34.826 34.9391C34.8366 34.9391 34.8577 34.9072 34.8724 34.8694C34.8999 34.7977 34.9336 34.7758 34.9336 34.8296C34.9336 34.8734 35.0665 34.7957 35.2078 34.6703C35.2711 34.6146 35.3766 34.537 35.4399 34.4991C35.5495 34.4354 35.5664 34.4315 35.7795 34.4255C35.9651 34.4195 36.0094 34.4235 36.0368 34.4514C36.0959 34.5071 36.0811 34.5907 35.9967 34.6703C35.9545 34.7101 35.925 34.746 35.9313 34.752C35.9482 34.7699 36.0938 34.5947 36.0938 34.5569C36.0938 34.4514 36.2161 34.3279 36.3996 34.2503C36.562 34.1786 36.8004 34.1707 36.8721 34.2304C36.8974 34.2523 36.9164 34.2881 36.9164 34.31C36.9185 34.3359 36.9417 34.3041 36.9776 34.2324C37.0388 34.107 37.1442 34.0035 37.2096 34.0035C37.2307 34.0035 37.2729 33.9856 37.3024 33.9637C37.332 33.9418 37.3615 33.9238 37.3678 33.9238C37.3763 33.9238 37.4184 33.9 37.4649 33.8721C37.5197 33.8383 37.5619 33.8243 37.5893 33.8343C37.642 33.8502 37.6842 33.9159 37.6674 33.9557C37.6441 34.0114 37.6737 33.9796 37.8129 33.7925C37.9922 33.5556 38.0196 33.5377 38.1715 33.5556C38.2538 33.5635 38.3213 33.5596 38.4056 33.5357C38.4816 33.5158 38.5554 33.5078 38.6145 33.5158C38.6651 33.5237 38.722 33.5197 38.7452 33.5078C38.8064 33.4779 38.8845 33.5337 38.8718 33.5994C38.8634 33.6452 38.8676 33.6432 38.9435 33.5735C39.0131 33.5098 39.0258 33.4859 39.0363 33.3784C39.049 33.2709 39.0595 33.249 39.1123 33.2152C39.1502 33.1933 39.1734 33.1594 39.1734 33.1316C39.1734 33.0938 39.1629 33.0878 39.0891 33.0878C39.0089 33.0878 38.9794 33.0639 39.0258 33.038C39.0384 33.032 39.0469 33.0082 39.0469 32.9863C39.0469 32.9664 39.0595 32.9484 39.0764 32.9484C39.1228 32.9484 39.1376 32.8788 39.1207 32.7275C39.1102 32.6319 39.1123 32.5901 39.1292 32.5901C39.1418 32.5901 39.1524 32.5762 39.1524 32.5603C39.1524 32.5443 39.1671 32.5304 39.184 32.5304C39.2009 32.5304 39.2156 32.5125 39.2156 32.4906C39.2156 32.4587 39.2304 32.4508 39.2895 32.4508C39.3401 32.4508 39.3633 32.4408 39.3633 32.4209C39.3633 32.397 39.3907 32.3911 39.4899 32.3911C39.589 32.3911 39.6164 32.3851 39.6164 32.3612C39.6164 32.3453 39.6312 32.3313 39.6481 32.3313C39.6649 32.3313 39.6797 32.3174 39.6797 32.3015C39.6797 32.2657 39.7451 32.2617 39.7809 32.2955C39.8295 32.3413 39.8632 32.2438 39.8506 32.0905C39.8484 32.0507 39.859 32.0347 39.8927 32.0268C39.9223 32.0188 39.9349 32.0049 39.9265 31.987C39.9054 31.9352 39.9602 31.9133 40.1184 31.9133C40.2324 31.9133 40.283 31.9213 40.3062 31.9452C40.3315 31.969 40.3631 31.973 40.4264 31.9631C40.4749 31.9571 40.5213 31.9432 40.534 31.9312C40.5699 31.8974 40.7323 31.9093 40.7702 31.9531C40.7977 31.983 40.8124 31.987 40.8356 31.969C40.8567 31.9511 40.8778 31.9531 40.9242 31.979C40.9727 32.0069 41.0023 32.0109 41.0719 31.9949C41.1204 31.985 41.1921 31.981 41.2301 31.987C41.2913 31.9969 41.3018 31.9909 41.3334 31.9332C41.3524 31.8974 41.3672 31.8476 41.3672 31.8257C41.3672 31.8018 41.3756 31.772 41.3862 31.756C41.4031 31.7302 41.3946 31.6764 41.3566 31.5888C41.344 31.561 41.3524 31.555 41.4073 31.555C41.4642 31.555 41.4706 31.549 41.4558 31.5231C41.441 31.4993 41.4516 31.4654 41.4853 31.4077C41.5127 31.3639 41.5359 31.3101 41.5359 31.2902C41.5359 31.2723 41.5465 31.2564 41.557 31.2564C41.5697 31.2564 41.5781 31.2425 41.5781 31.2265C41.5781 31.2086 41.6013 31.1867 41.6309 31.1768C41.6731 31.1609 41.6836 31.1449 41.6836 31.0872C41.6836 31.0016 41.6372 30.9777 41.5781 31.0275C41.5549 31.0474 41.5359 31.0553 41.5359 31.0434C41.5359 31.0334 41.5106 31.0135 41.4811 31.0016C41.4178 30.9737 41.4305 30.9459 41.5149 30.9279C41.5507 30.92 41.5781 30.9041 41.5781 30.8881C41.5781 30.8523 41.4959 30.6831 41.4727 30.6692C41.4621 30.6632 41.4558 30.6134 41.4579 30.5577C41.4621 30.4363 41.4241 30.4004 41.2913 30.4004C41.1879 30.4004 41.171 30.3765 41.2111 30.283C41.228 30.2471 41.2406 30.1894 41.2406 30.1576C41.2406 30.0959 41.2723 30.0262 41.3145 29.9923C41.3292 29.9804 41.3461 29.9486 41.3545 29.9167C41.3714 29.853 41.3862 29.851 41.4938 29.9028C41.5402 29.9247 41.5929 29.9426 41.614 29.9426C41.6709 29.9426 41.7954 29.7913 41.7785 29.7435C41.7617 29.6918 41.7363 29.6938 41.6963 29.7455C41.6688 29.7833 41.6583 29.7853 41.5971 29.7654C41.5613 29.7535 41.5043 29.7435 41.4727 29.7435C41.4115 29.7435 41.3461 29.6898 41.3461 29.638C41.3461 29.6022 41.2491 29.5245 41.2048 29.5245C41.1837 29.5245 41.1774 29.5066 41.1816 29.4688C41.1879 29.423 41.1984 29.4151 41.2617 29.4111C41.3018 29.4071 41.3883 29.3991 41.4516 29.3932L41.5676 29.3812L41.6414 29.2538C41.6815 29.1842 41.7258 29.1264 41.7406 29.1264C41.7574 29.1264 41.8017 29.0946 41.8397 29.0548C41.8798 29.0149 41.9199 28.9871 41.9304 28.9931C41.9409 28.999 41.962 28.997 41.9768 28.9891C41.9979 28.9751 41.9979 28.9632 41.981 28.9313C41.9684 28.9094 41.9578 28.8597 41.9578 28.8219C41.9578 28.7661 41.9431 28.7442 41.8903 28.7084C41.8017 28.6507 41.7258 28.5412 41.7258 28.4715C41.7258 28.4138 41.7827 28.3441 41.8734 28.2884C41.9177 28.2605 41.922 28.2505 41.8988 28.2247C41.8587 28.1809 41.7195 28.1948 41.5718 28.2585C41.4241 28.3222 41.3883 28.3222 41.3208 28.2645C41.2913 28.2406 41.2385 28.2068 41.2048 28.1888C41.1478 28.159 41.0866 28.0395 41.0824 27.9539C41.0824 27.936 41.036 27.9141 40.9685 27.8962C40.8778 27.8723 40.842 27.8703 40.7871 27.8902C40.747 27.9022 40.6922 27.9082 40.6627 27.9002C40.5973 27.8863 40.5234 27.7947 40.5234 27.729C40.5234 27.7051 40.5045 27.6613 40.4813 27.6334L40.4391 27.5837L40.3674 27.6613C40.3188 27.7151 40.2766 27.7409 40.2345 27.7449C40.2028 27.7469 40.1501 27.7549 40.1184 27.7628C40.0678 27.7748 40.0594 27.7708 40.0425 27.7091C40.0299 27.6613 40.0109 27.6414 39.975 27.6374C39.9138 27.6275 39.8337 27.5817 39.7683 27.518C39.7303 27.4802 39.7219 27.4563 39.7324 27.4125C39.7409 27.3767 39.7367 27.3548 39.724 27.3548C39.7113 27.3548 39.7008 27.3687 39.7008 27.3846C39.7008 27.4065 39.6776 27.4145 39.6101 27.4125C39.5595 27.4105 39.5067 27.4145 39.492 27.4224C39.4772 27.4324 39.4456 27.4205 39.416 27.3946C39.3823 27.3647 39.3527 27.3548 39.3232 27.3647C39.2705 27.3806 39.1945 27.313 39.1945 27.2493C39.1945 27.1756 39.1608 27.1418 39.1144 27.1676C39.0933 27.1816 39.0511 27.1875 39.0216 27.1816C38.9499 27.1696 38.9414 27.1875 38.9667 27.299C38.9878 27.3786 38.9836 27.3966 38.9499 27.4384C38.9266 27.4662 38.8971 27.4842 38.8845 27.4802C38.8697 27.4742 38.8359 27.4861 38.8106 27.5021C38.7516 27.5419 38.7009 27.5439 38.7157 27.5041C38.7431 27.4404 38.4984 27.2094 38.3592 27.1676C38.3339 27.1597 38.2749 27.098 38.2263 27.0283C38.1483 26.9148 38.1399 26.887 38.1399 26.7795C38.1399 26.674 38.1356 26.658 38.0998 26.658C37.9922 26.658 37.8699 26.4849 37.9078 26.3873C37.9289 26.3395 37.9268 26.3356 37.8825 26.3455C37.7074 26.3853 37.6695 26.4012 37.6336 26.445C37.5809 26.5087 37.4417 26.5525 37.2138 26.5804C37.1147 26.5904 36.9881 26.6182 36.9333 26.6421C36.8405 26.6799 36.7224 26.7795 36.7034 26.8352C36.697 26.8531 36.6759 26.8531 36.6253 26.8352C36.5726 26.8173 36.5578 26.8034 36.5641 26.7755C36.5768 26.7277 36.5452 26.7058 36.446 26.6879C36.4017 26.6799 36.3595 26.66 36.3532 26.6441C36.3448 26.6222 36.3279 26.6282 36.2836 26.668C36.2499 26.6979 36.2077 26.7178 36.1887 26.7138C36.1507 26.7078 36.1444 26.6979 36.0959 26.5983C36.0495 26.5028 36.0178 26.463 35.9503 26.4092C35.8828 26.3555 35.8744 26.3535 35.712 26.3654C35.6192 26.3734 35.5327 26.3853 35.5179 26.3933C35.5031 26.4012 35.4757 26.4052 35.4546 26.4032C35.4293 26.3993 35.4103 26.4152 35.3956 26.457C35.3724 26.5207 35.2922 26.5585 35.1762 26.5585C35.0981 26.5585 35.0813 26.5326 35.0813 26.4271C35.0813 26.3734 35.0707 26.3555 35.0349 26.3415C34.9357 26.3057 34.8218 26.1206 34.8176 25.9872C34.8176 25.9175 34.826 25.8996 34.8661 25.8837C34.9083 25.8658 34.9125 25.8518 34.902 25.7941C34.8935 25.7543 34.8977 25.7224 34.9104 25.7145C34.9526 25.6906 34.9357 25.6309 34.8809 25.607C34.8429 25.5891 34.8281 25.5692 34.8281 25.5254C34.8281 25.4935 34.8176 25.4597 34.8049 25.4517C34.7923 25.4457 34.7859 25.4119 34.7902 25.3801C34.7986 25.3343 34.7881 25.3144 34.7416 25.2825C34.691 25.2487 34.6847 25.2367 34.7016 25.1929C34.7142 25.1651 34.7184 25.1332 34.71 25.1233C34.7037 25.1133 34.7142 25.1053 34.7311 25.1053C34.7754 25.1053 34.8176 25.0277 34.7881 24.9998C34.7585 24.972 34.5856 24.974 34.5476 25.0018C34.5117 25.0297 34.4695 24.9959 34.4695 24.9421C34.4695 24.9222 34.4548 24.8824 34.4358 24.8565C34.4147 24.8267 34.402 24.7649 34.402 24.7072C34.402 24.6157 34.3978 24.6077 34.3535 24.6077C34.3261 24.6077 34.3008 24.6196 34.2966 24.6316C34.2881 24.6515 34.2734 24.6515 34.227 24.6316C34.1742 24.6077 34.1595 24.6097 34.1088 24.6455C34.0751 24.6694 34.035 24.6873 34.0181 24.6873C34.0013 24.6873 33.9844 24.6973 33.9802 24.7112C33.9696 24.7411 33.7756 24.7351 33.7376 24.7032C33.7228 24.6913 33.7102 24.6614 33.7102 24.6356C33.7102 24.5818 33.6342 24.532 33.5984 24.5659C33.5752 24.5878 33.4971 24.5798 33.3684 24.544C33.3031 24.5261 33.2799 24.5281 33.2356 24.5559C33.1807 24.5898 33.1596 24.5858 33.0942 24.532C33.0584 24.5042 33.0605 24.4962 33.1322 24.4146C33.2145 24.321 33.2081 24.2852 33.1048 24.2474C33.0541 24.2295 33.0394 24.1817 33.0774 24.1598C33.09 24.1538 33.0984 24.1319 33.0984 24.11C33.0984 24.0901 33.1132 24.0702 33.1301 24.0623C33.1659 24.0503 33.1744 23.9309 33.1406 23.9309C33.128 23.9309 33.1048 23.901 33.0879 23.8652C33.071 23.8313 33.0584 23.8094 33.0563 23.8194C33.0563 23.8313 33.0331 23.8075 33.0035 23.7716C32.974 23.7338 32.9234 23.682 32.8917 23.6601C32.8601 23.6363 32.8411 23.6104 32.8495 23.6024C32.8643 23.5885 32.8917 23.5825 33.1512 23.5327C33.341 23.4969 33.379 23.479 33.36 23.4372C33.3516 23.4193 33.341 23.3695 33.3347 23.3297C33.3242 23.2461 33.2124 23.1346 33.1406 23.1346C33.1174 23.1346 33.0984 23.1227 33.0984 23.1087C33.0984 23.0948 33.0563 23.0391 33.0035 22.9893C32.9508 22.9375 32.9086 22.8898 32.9086 22.8818C32.9086 22.8758 32.8938 22.8599 32.8749 22.848C32.8327 22.8181 32.8263 22.633 32.8685 22.5852C32.8938 22.5573 32.8896 22.5474 32.839 22.5096C32.8074 22.4857 32.782 22.4518 32.782 22.4319C32.782 22.414 32.7673 22.3981 32.7504 22.3981C32.7335 22.3981 32.7188 22.3861 32.7188 22.3722C32.7188 22.3583 32.6977 22.3384 32.6724 22.3284C32.6386 22.3145 32.6196 22.2866 32.6133 22.2388C32.6049 22.1871 32.5901 22.1672 32.55 22.1592C32.5205 22.1532 32.4952 22.1313 32.4888 22.1094C32.4846 22.0875 32.4741 22.0597 32.4635 22.0477C32.4319 22.0119 32.28 22.0378 32.1408 22.1015C31.9784 22.1751 31.9509 22.1751 31.9657 22.1015C31.9784 22.0457 31.9763 22.0438 31.8687 22.0338C31.8096 22.0298 31.74 22.0338 31.7147 22.0438C31.6831 22.0577 31.6514 22.0557 31.605 22.0318C31.5185 21.99 31.4721 21.992 31.4595 22.0398ZM32.4867 35.7473C32.5142 35.813 32.5142 35.8548 32.4867 35.8548C32.4762 35.8548 32.4656 35.8368 32.4656 35.813C32.4656 35.7911 32.4551 35.7552 32.4445 35.7333C32.4277 35.7075 32.4298 35.6955 32.4445 35.6955C32.4572 35.6955 32.4762 35.7194 32.4867 35.7473ZM32.4234 35.7791C32.4234 35.8169 32.4192 35.8189 32.4024 35.795C32.3749 35.7572 32.3749 35.7353 32.4024 35.7353C32.415 35.7353 32.4234 35.7552 32.4234 35.7791ZM33.0014 35.7791C33.0077 35.805 33.0141 35.8368 33.0141 35.8488C33.0141 35.8866 32.9191 35.8806 32.8854 35.8408C32.8601 35.811 32.8601 35.809 32.8917 35.8209C32.9381 35.8368 32.9803 35.7911 32.9466 35.7592C32.9276 35.7413 32.9297 35.7353 32.955 35.7353C32.974 35.7353 32.993 35.7552 33.0014 35.7791ZM32.6344 35.7931C32.6344 35.801 32.6196 35.8249 32.6027 35.8468C32.5732 35.8826 32.5732 35.8806 32.5711 35.8209C32.5711 35.7712 32.5795 35.7592 32.6027 35.7672C32.6196 35.7751 32.6344 35.7851 32.6344 35.7931ZM32.7567 35.9045C32.7926 35.9802 32.7863 35.9901 32.7399 35.9344C32.6956 35.8806 32.6871 35.8548 32.7145 35.8548C32.7251 35.8548 32.7441 35.8767 32.7567 35.9045ZM33.3516 35.9344C33.3516 35.9443 33.3347 35.9543 33.3157 35.9543C33.2841 35.9543 33.282 35.9503 33.3094 35.9344C33.3495 35.9105 33.3516 35.9105 33.3516 35.9344ZM32.4024 35.9961C32.4024 36.006 32.3939 36.014 32.3813 36.014C32.3707 36.014 32.3602 36.0001 32.3602 35.9822C32.3602 35.9662 32.3707 35.9583 32.3813 35.9642C32.3939 35.9702 32.4024 35.9842 32.4024 35.9961Z" fill="#718FDB"/>
<path d="M36.8658 34.4136C36.8447 34.4415 36.832 34.4693 36.8384 34.4733C36.8426 34.4793 36.8637 34.4594 36.8827 34.4295C36.9038 34.4016 36.9164 34.3738 36.9101 34.3698C36.9059 34.3638 36.8848 34.3837 36.8658 34.4136Z" fill="#718FDB"/>
<path d="M34.6232 35.1978C34.6105 35.2297 34.6021 35.2576 34.6084 35.2576C34.6126 35.2576 34.6295 35.2297 34.6485 35.1978C34.6675 35.164 34.6738 35.1381 34.6633 35.1381C34.6548 35.1381 34.6358 35.164 34.6232 35.1978Z" fill="#718FDB"/>
<path d="M32.2656 35.3373C32.2592 35.3472 32.2677 35.3572 32.2867 35.3572C32.3056 35.3572 32.3141 35.3472 32.3078 35.3373C32.3014 35.3253 32.2909 35.3174 32.2867 35.3174C32.2824 35.3174 32.2719 35.3253 32.2656 35.3373Z" fill="#718FDB"/>
<path d="M34.4168 35.4388C34.3599 35.4707 34.2966 35.5025 34.2797 35.5105C34.2312 35.5324 34.189 35.5762 34.2038 35.5901C34.2185 35.606 34.3746 35.5403 34.44 35.4906C34.4801 35.4607 34.5518 35.3691 34.5286 35.3791C34.5244 35.3811 34.4759 35.407 34.4168 35.4388Z" fill="#718FDB"/>
<path d="M33.9106 35.5341C33.9232 35.5919 33.881 35.6496 33.862 35.5998C33.8578 35.5859 33.8262 35.576 33.7945 35.576H33.7334L33.7777 35.6556C33.8241 35.7372 33.8578 35.7591 33.8578 35.7053C33.8578 35.6635 33.8979 35.6675 33.9127 35.7093C33.919 35.7292 33.9359 35.769 33.9506 35.7969C33.9675 35.8268 33.9759 35.8745 33.9717 35.9064C33.9696 35.9363 33.9612 36.0079 33.9527 36.0637C33.9422 36.1592 33.9422 36.1612 33.9759 36.1174C33.9949 36.0935 34.0224 36.0736 34.035 36.0736C34.0498 36.0736 34.092 36.1493 34.1299 36.2408C34.1679 36.3344 34.2185 36.426 34.2438 36.4459L34.2881 36.4817L34.2438 36.412C34.1848 36.3185 34.0181 35.9263 33.9886 35.8148C33.9759 35.7651 33.9591 35.6695 33.9506 35.5998C33.9443 35.5322 33.9274 35.4764 33.9169 35.4764C33.9063 35.4764 33.9021 35.5023 33.9106 35.5341Z" fill="#718FDB"/>
</g>
</g>
<defs>
<filter id="filter0_i_1_2226" x="0" y="0.684814" width="44.0812" height="58.7686" filterUnits="userSpaceOnUse" color-interpolation-filters="sRGB">
<feFlood flood-opacity="0" result="BackgroundImageFix"/>
<feBlend mode="normal" in="SourceGraphic" in2="BackgroundImageFix" result="shape"/>
<feColorMatrix in="SourceAlpha" type="matrix" values="0 0 0 0 0 0 0 0 0 0 0 0 0 0 0 0 0 0 127 0" result="hardAlpha"/>
<feOffset dx="1"/>
<feGaussianBlur stdDeviation="1"/>
<feComposite in2="hardAlpha" operator="arithmetic" k2="-1" k3="1"/>
<feColorMatrix type="matrix" values="0 0 0 0 0.645573 0 0 0 0 0.752199 0 0 0 0 0.8375 0 0 0 1 0"/>
<feBlend mode="normal" in2="shape" result="effect1_innerShadow_1_2226"/>
</filter>
<clipPath id="clip0_1_2226">
<rect width="79" height="60" fill="white"/>
</clipPath>
<clipPath id="clip1_1_2226">
<rect width="27" height="17" fill="white" transform="translate(15 22)"/>
</clipPath>
</defs>
</svg>
