<svg width="225" height="48" viewBox="0 0 225 48" fill="none" xmlns="http://www.w3.org/2000/svg">
<g clip-path="url(#clip0_56_11)">
<path d="M27.6625 5H49.1834L36.6875 21.5176H15.1667L27.6625 5Z" fill="#086EAB"/>
<path d="M13.2122 24.4824H35.9667L22.7543 41.0001H0L13.2122 24.4824Z" fill="#F2913D"/>
<path d="M55.2457 5H78L64.7877 21.5176H42.0333L55.2457 5Z" fill="#BF1C54"/>
<path d="M40.729 24.4824H63.4833L50.271 41.0001H27.5167L40.729 24.4824Z" fill="#BDD130"/>
</g>
<path d="M102.312 14V2.832H109.672V4.704H104.424V7.408H109.064V9.28H104.424V12.128H109.672V14H102.312ZM120.786 14H118.322L115.762 9.712H115.714L113.186 14H110.882L114.498 8.272L111.042 2.832H113.506L115.874 6.8H115.922L118.322 2.832H120.626L117.138 8.272L120.786 14ZM126.304 14.192C125.568 14.192 124.902 14.0747 124.304 13.84C123.718 13.5947 123.211 13.232 122.784 12.752C122.368 12.272 122.048 11.68 121.824 10.976C121.6 10.2613 121.488 9.43467 121.488 8.496C121.488 7.55733 121.6 6.72533 121.824 6C122.048 5.264 122.368 4.65067 122.784 4.16C123.211 3.65867 123.718 3.28 124.304 3.024C124.902 2.768 125.568 2.64 126.304 2.64C127.307 2.64 128.139 2.85333 128.8 3.28C129.462 3.70667 129.99 4.352 130.384 5.216L128.576 6.176C128.416 5.67467 128.155 5.27467 127.792 4.976C127.43 4.66667 126.934 4.512 126.304 4.512C125.515 4.512 124.886 4.77867 124.416 5.312C123.958 5.84533 123.728 6.592 123.728 7.552V9.312C123.728 10.2827 123.958 11.0293 124.416 11.552C124.886 12.064 125.515 12.32 126.304 12.32C126.934 12.32 127.446 12.1493 127.84 11.808C128.246 11.4667 128.539 11.0453 128.72 10.544L130.432 11.552C130.027 12.384 129.488 13.0347 128.816 13.504C128.144 13.9627 127.307 14.192 126.304 14.192ZM139.002 9.28H134.346V14H132.234V2.832H134.346V7.408H139.002V2.832H141.114V14H139.002V9.28ZM150.646 14L149.75 11.152H145.782L144.902 14H142.758L146.502 2.832H149.126L152.838 14H150.646ZM147.798 4.752H147.718L146.294 9.344H149.238L147.798 4.752ZM157.684 8.272L156.532 5.952H156.484V14H154.484V2.832H156.804L160.164 8.56L161.316 10.88H161.364V2.832H163.364V14H161.044L157.684 8.272ZM173.104 12.272H173.04C172.944 12.816 172.64 13.2747 172.128 13.648C171.627 14.0107 170.955 14.192 170.112 14.192C169.451 14.192 168.837 14.0693 168.272 13.824C167.717 13.5787 167.232 13.216 166.816 12.736C166.411 12.2453 166.091 11.6427 165.856 10.928C165.621 10.2133 165.504 9.38667 165.504 8.448C165.504 7.50933 165.621 6.68267 165.856 5.968C166.101 5.24267 166.443 4.63467 166.88 4.144C167.317 3.65333 167.84 3.28 168.448 3.024C169.056 2.768 169.733 2.64 170.48 2.64C171.483 2.64 172.336 2.85867 173.04 3.296C173.744 3.73333 174.299 4.36267 174.704 5.184L172.992 6.192C172.789 5.712 172.485 5.312 172.08 4.992C171.685 4.672 171.152 4.512 170.48 4.512C169.648 4.512 168.981 4.768 168.48 5.28C167.989 5.78133 167.744 6.528 167.744 7.52V9.312C167.744 10.2933 167.995 11.04 168.496 11.552C168.997 12.064 169.669 12.32 170.512 12.32C170.843 12.32 171.152 12.2827 171.44 12.208C171.728 12.1227 171.979 12 172.192 11.84C172.405 11.68 172.576 11.4827 172.704 11.248C172.832 11.0133 172.896 10.736 172.896 10.416V9.696H170.704V7.92H174.928V14H173.104V12.272ZM177.375 14V2.832H184.735V4.704H179.487V7.408H184.127V9.28H179.487V12.128H184.735V14H177.375ZM106.696 20.704V30H104.584V20.704H101.416V18.832H109.864V20.704H106.696ZM111.593 30V18.832H118.953V20.704H113.705V23.408H118.345V25.28H113.705V28.128H118.953V30H111.593ZM125.523 30.192C124.787 30.192 124.12 30.0747 123.523 29.84C122.936 29.5947 122.43 29.232 122.003 28.752C121.587 28.272 121.267 27.68 121.043 26.976C120.819 26.2613 120.707 25.4347 120.707 24.496C120.707 23.5573 120.819 22.7253 121.043 22C121.267 21.264 121.587 20.6507 122.003 20.16C122.43 19.6587 122.936 19.28 123.523 19.024C124.12 18.768 124.787 18.64 125.523 18.64C126.526 18.64 127.358 18.8533 128.019 19.28C128.68 19.7067 129.208 20.352 129.603 21.216L127.795 22.176C127.635 21.6747 127.374 21.2747 127.011 20.976C126.648 20.6667 126.152 20.512 125.523 20.512C124.734 20.512 124.104 20.7787 123.635 21.312C123.176 21.8453 122.947 22.592 122.947 23.552V25.312C122.947 26.2827 123.176 27.0293 123.635 27.552C124.104 28.064 124.734 28.32 125.523 28.32C126.152 28.32 126.664 28.1493 127.059 27.808C127.464 27.4667 127.758 27.0453 127.939 26.544L129.651 27.552C129.246 28.384 128.707 29.0347 128.035 29.504C127.363 29.9627 126.526 30.192 125.523 30.192ZM138.221 25.28H133.565V30H131.453V18.832H133.565V23.408H138.221V18.832H140.333V30H138.221V25.28ZM146.153 24.272L145.001 21.952H144.953V30H142.953V18.832H145.273L148.633 24.56L149.785 26.88H149.833V18.832H151.833V30H149.513L146.153 24.272ZM158.837 30.192C158.101 30.192 157.434 30.0693 156.837 29.824C156.239 29.5787 155.727 29.2107 155.301 28.72C154.885 28.2293 154.559 27.6267 154.325 26.912C154.09 26.1973 153.973 25.3653 153.973 24.416C153.973 23.4773 154.09 22.6507 154.325 21.936C154.559 21.2107 154.885 20.6027 155.301 20.112C155.727 19.6213 156.239 19.2533 156.837 19.008C157.434 18.7627 158.101 18.64 158.837 18.64C159.573 18.64 160.239 18.7627 160.837 19.008C161.434 19.2533 161.946 19.6213 162.373 20.112C162.799 20.6027 163.125 21.2107 163.349 21.936C163.583 22.6507 163.701 23.4773 163.701 24.416C163.701 25.3653 163.583 26.1973 163.349 26.912C163.125 27.6267 162.799 28.2293 162.373 28.72C161.946 29.2107 161.434 29.5787 160.837 29.824C160.239 30.0693 159.573 30.192 158.837 30.192ZM158.837 28.32C159.637 28.32 160.271 28.0533 160.741 27.52C161.221 26.9867 161.461 26.24 161.461 25.28V23.552C161.461 22.592 161.221 21.8453 160.741 21.312C160.271 20.7787 159.637 20.512 158.837 20.512C158.037 20.512 157.397 20.7787 156.917 21.312C156.447 21.8453 156.213 22.592 156.213 23.552V25.28C156.213 26.24 156.447 26.9867 156.917 27.52C157.397 28.0533 158.037 28.32 158.837 28.32ZM165.843 30V18.832H167.955V28.128H172.355V30H165.843ZM177.977 30.192C177.241 30.192 176.575 30.0693 175.977 29.824C175.38 29.5787 174.868 29.2107 174.441 28.72C174.025 28.2293 173.7 27.6267 173.465 26.912C173.231 26.1973 173.113 25.3653 173.113 24.416C173.113 23.4773 173.231 22.6507 173.465 21.936C173.7 21.2107 174.025 20.6027 174.441 20.112C174.868 19.6213 175.38 19.2533 175.977 19.008C176.575 18.7627 177.241 18.64 177.977 18.64C178.713 18.64 179.38 18.7627 179.977 19.008C180.575 19.2533 181.087 19.6213 181.513 20.112C181.94 20.6027 182.265 21.2107 182.489 21.936C182.724 22.6507 182.841 23.4773 182.841 24.416C182.841 25.3653 182.724 26.1973 182.489 26.912C182.265 27.6267 181.94 28.2293 181.513 28.72C181.087 29.2107 180.575 29.5787 179.977 29.824C179.38 30.0693 178.713 30.192 177.977 30.192ZM177.977 28.32C178.777 28.32 179.412 28.0533 179.881 27.52C180.361 26.9867 180.601 26.24 180.601 25.28V23.552C180.601 22.592 180.361 21.8453 179.881 21.312C179.412 20.7787 178.777 20.512 177.977 20.512C177.177 20.512 176.537 20.7787 176.057 21.312C175.588 21.8453 175.353 22.592 175.353 23.552V25.28C175.353 26.24 175.588 26.9867 176.057 27.52C176.537 28.0533 177.177 28.32 177.977 28.32ZM192.104 28.272H192.04C191.944 28.816 191.64 29.2747 191.128 29.648C190.627 30.0107 189.955 30.192 189.112 30.192C188.451 30.192 187.837 30.0693 187.272 29.824C186.717 29.5787 186.232 29.216 185.816 28.736C185.411 28.2453 185.091 27.6427 184.856 26.928C184.621 26.2133 184.504 25.3867 184.504 24.448C184.504 23.5093 184.621 22.6827 184.856 21.968C185.101 21.2427 185.443 20.6347 185.88 20.144C186.317 19.6533 186.84 19.28 187.448 19.024C188.056 18.768 188.733 18.64 189.48 18.64C190.483 18.64 191.336 18.8587 192.04 19.296C192.744 19.7333 193.299 20.3627 193.704 21.184L191.992 22.192C191.789 21.712 191.485 21.312 191.08 20.992C190.685 20.672 190.152 20.512 189.48 20.512C188.648 20.512 187.981 20.768 187.48 21.28C186.989 21.7813 186.744 22.528 186.744 23.52V25.312C186.744 26.2933 186.995 27.04 187.496 27.552C187.997 28.064 188.669 28.32 189.512 28.32C189.843 28.32 190.152 28.2827 190.44 28.208C190.728 28.1227 190.979 28 191.192 27.84C191.405 27.68 191.576 27.4827 191.704 27.248C191.832 27.0133 191.896 26.736 191.896 26.416V25.696H189.704V23.92H193.928V30H192.104V28.272ZM195.911 30V28.304H197.383V20.528H195.911V18.832H200.983V20.528H199.495V28.304H200.983V30H195.911ZM203.14 30V18.832H210.5V20.704H205.252V23.408H209.892V25.28H205.252V28.128H210.5V30H203.14ZM216.206 30.192C215.246 30.192 214.43 30.0213 213.758 29.68C213.097 29.3387 212.526 28.8907 212.046 28.336L213.47 26.96C213.854 27.408 214.281 27.7493 214.75 27.984C215.23 28.2187 215.758 28.336 216.334 28.336C216.985 28.336 217.475 28.1973 217.806 27.92C218.137 27.632 218.302 27.248 218.302 26.768C218.302 26.3947 218.195 26.0907 217.982 25.856C217.769 25.6213 217.369 25.4507 216.782 25.344L215.726 25.184C213.497 24.832 212.382 23.7493 212.382 21.936C212.382 21.4347 212.473 20.9813 212.654 20.576C212.846 20.1707 213.118 19.824 213.47 19.536C213.822 19.248 214.243 19.0293 214.734 18.88C215.235 18.72 215.801 18.64 216.43 18.64C217.273 18.64 218.009 18.7787 218.638 19.056C219.267 19.3333 219.806 19.744 220.254 20.288L218.814 21.648C218.537 21.3067 218.201 21.0293 217.806 20.816C217.411 20.6027 216.915 20.496 216.318 20.496C215.71 20.496 215.251 20.6133 214.942 20.848C214.643 21.072 214.494 21.392 214.494 21.808C214.494 22.2347 214.617 22.5493 214.862 22.752C215.107 22.9547 215.502 23.104 216.046 23.2L217.086 23.392C218.217 23.5947 219.049 23.9573 219.582 24.48C220.126 24.992 220.398 25.712 220.398 26.64C220.398 27.1733 220.302 27.6587 220.11 28.096C219.929 28.5227 219.657 28.896 219.294 29.216C218.942 29.5253 218.505 29.7653 217.982 29.936C217.47 30.1067 216.878 30.192 216.206 30.192ZM106.648 46.192C105.912 46.192 105.245 46.0747 104.648 45.84C104.061 45.5947 103.555 45.232 103.128 44.752C102.712 44.272 102.392 43.68 102.168 42.976C101.944 42.2613 101.832 41.4347 101.832 40.496C101.832 39.5573 101.944 38.7253 102.168 38C102.392 37.264 102.712 36.6507 103.128 36.16C103.555 35.6587 104.061 35.28 104.648 35.024C105.245 34.768 105.912 34.64 106.648 34.64C107.651 34.64 108.483 34.8533 109.144 35.28C109.805 35.7067 110.333 36.352 110.728 37.216L108.92 38.176C108.76 37.6747 108.499 37.2747 108.136 36.976C107.773 36.6667 107.277 36.512 106.648 36.512C105.859 36.512 105.229 36.7787 104.76 37.312C104.301 37.8453 104.072 38.592 104.072 39.552V41.312C104.072 42.2827 104.301 43.0293 104.76 43.552C105.229 44.064 105.859 44.32 106.648 44.32C107.277 44.32 107.789 44.1493 108.184 43.808C108.589 43.4667 108.883 43.0453 109.064 42.544L110.776 43.552C110.371 44.384 109.832 45.0347 109.16 45.504C108.488 45.9627 107.651 46.192 106.648 46.192ZM112.578 46V34.832H119.938V36.704H114.69V39.408H119.33V41.28H114.69V44.128H119.938V46H112.578ZM125.371 40.272L124.219 37.952H124.171V46H122.171V34.832H124.491L127.851 40.56L129.003 42.88H129.051V34.832H131.051V46H128.731L125.371 40.272ZM138.055 36.704V46H135.943V36.704H132.775V34.832H141.223V36.704H138.055ZM142.953 46V34.832H150.313V36.704H145.065V39.408H149.705V41.28H145.065V44.128H150.313V46H142.953ZM154.658 46H152.546V34.832H157.586C158.098 34.832 158.557 34.912 158.962 35.072C159.368 35.232 159.709 35.4667 159.986 35.776C160.274 36.0747 160.493 36.4373 160.642 36.864C160.802 37.2907 160.882 37.7653 160.882 38.288C160.882 39.056 160.706 39.7173 160.354 40.272C160.013 40.8267 159.496 41.2213 158.802 41.456L161.09 46H158.738L156.658 41.696H154.658V46ZM157.378 39.92C157.784 39.92 158.104 39.8133 158.338 39.6C158.573 39.376 158.69 39.0613 158.69 38.656V37.92C158.69 37.5147 158.573 37.2053 158.338 36.992C158.104 36.7787 157.784 36.672 157.378 36.672H154.658V39.92H157.378Z" fill="black"/>
<defs>
<clipPath id="clip0_56_11">
<rect width="78" height="36" fill="white" transform="translate(0 5)"/>
</clipPath>
</defs>
</svg>
